<?xml version="1.0" encoding="UTF-8" standalone="no"?>
<svg
   version="1.1"
   style="display:block"
   viewBox="0 0 672.9897 578.75909"
   width="782.67059"
   height="578.75909"
   preserveAspectRatio="none"
   id="svg213"
   xmlns="http://www.w3.org/2000/svg"
   xmlns:svg="http://www.w3.org/2000/svg">
  <defs
     id="defs2">
    <linearGradient
       id="Gradient1"
       gradientUnits="userSpaceOnUse"
       x1="1212.26"
       y1="1519.13"
       x2="1097.65"
       y2="1453.72">
      <stop
         class="stop0"
         offset="0"
         stop-opacity="1"
         stop-color="rgb(0,0,0)"
         id="stop1" />
      <stop
         class="stop1"
         offset="1"
         stop-opacity="1"
         stop-color="rgb(58,35,26)"
         id="stop2" />
    </linearGradient>
  </defs>
  <g
     id="g270"
     transform="translate(-2824.9403,-139.91206)">
    <path
       fill="rgb(2,2,3)"
       d="m 3239.68,637.254 c 23.36,-4.14 86.17,-100.186 115.7,-74.417 49.07,42.812 72.24,115.423 138.74,137.079 1.51,0.491 3.2,4.623 3.81,6.178 -2.83,14.08 -29.55,11.05 -41.18,11.769 -40.44,2.499 -43.62,1.538 -38.7,-38.192 -32.82,-27.345 -43.31,-29.946 -72.58,-64.006 -14.2,27.189 -48.66,90.154 -78.14,97.891 -13.53,3.549 -27.23,2.411 -41,0.113 -17.49,-3.402 -34.7,-8.075 -51.5,-13.982 11.61,-10.424 26.5,-54.243 31.62,-69.182 14.25,4.637 17.95,5.977 33.23,6.749 z"
       id="path49"
       style="fill:#cccccc;fill-opacity:1" />
    <path
       fill="#754938"
       d="m 3206.45,630.505 c 14.25,4.637 17.95,5.977 33.23,6.749 l -8.42,1.611 c -1.92,3.809 -3.92,64.146 -4.93,74.804 -17.49,-3.402 -34.7,-8.075 -51.5,-13.982 11.61,-10.424 26.5,-54.243 31.62,-69.182 z"
       id="path50" />
    <path
       fill="rgb(2,2,3)"
       d="m 3049.2,274.721 c 114.34,-122.297 101.13,-89.231 191.76,24.15 -4.21,4.418 -13.64,13.719 -17.1,18.031 -23.94,-12.406 -58.46,-40.414 -72.93,-64.005 -17.7,30.416 -45.77,81.027 -75.86,100.355 -13.89,0.728 -25.89,0.556 -39.76,-1.359 -2.22,-7.625 -4.89,-64.094 -5.38,-74.729 z"
       id="path61"
       style="fill:#cccccc;fill-opacity:1" />
    <path
       fill="rgb(151,103,72)"
       d="m 2956.13,262.231 c 14.58,-4.317 110.36,-125.919 132.62,-122.237 1.23,10.173 -11.33,18.242 -18.4,25.676 l 0.27,1.917 7.54,-0.862 c 1.3,10.735 -28.69,20.211 -32.68,30.395 -6.88,17.51 -51.52,64.47 -56.09,76.994 l 0.27,1.128 c 10.66,2.611 28.63,1.909 40.27,1.922 0.49,10.635 3.16,67.104 5.38,74.729 -4.39,-1.664 -33.26,-0.933 -40.14,-0.871 -14.27,1.63 -47.6,4.868 -61.06,1.393 -10.05,-0.34 -18.7,-4.536 -26.33,-10.798 l -7.17,-5.053 c -4.09,-21.298 -14.19,-10.241 -19.68,-28.84 10.13,-1.228 11.35,-4.467 18.35,-12.13 l 14.05,4.994 c 13.07,-18.239 20.83,-31.925 42.8,-38.357 z"
       id="path73"
       style="fill:#754938;fill-opacity:1" />
    <path
       fill="rgb(151,103,72)"
       d="m 2989.66,275.242 c 10.66,2.611 28.63,1.909 40.27,1.922 0.49,10.635 3.16,67.104 5.38,74.729 -4.39,-1.664 -33.26,-0.933 -40.14,-0.871 0.12,-17.901 2.19,-61.895 -5.51,-75.78 z"
       id="path74"
       style="fill:#754938;fill-opacity:1" />
    <path
       id="path75"
       d="m 2956.1293,262.23047 c -21.97,6.432 -29.73,20.11842 -42.8,38.35742 l -14.05,-4.99414 c -7,7.663 -8.2194,10.90286 -18.3494,12.13086 5.49,18.599 15.5895,7.54184 19.6795,28.83984 l 7.1711,5.05274 c 7.63,6.262 16.28,10.45687 26.33,10.79687 13.46,3.475 46.7903,0.23742 61.0603,-1.39258 0.12,-17.901 2.1899,-61.89429 -5.5101,-75.77929 -26.28,22.876 -36.8108,55.96362 -57.6008,67.89062 -56.2796,-8.9241 12.8052,-68.15755 28.2752,-82.84654 z"
       style="fill:#cccccc;fill-opacity:1" />
    <path
       fill="rgb(117,73,56)"
       d="m 2880.93,307.724 c 10.13,-1.228 11.35,-4.467 18.35,-12.13 l 14.05,4.994 c -10.67,16.124 -11.23,22.456 -5.55,41.029 l -7.17,-5.053 c -4.09,-21.298 -14.19,-10.241 -19.68,-28.84 z"
       id="path77"
       style="fill:#5f3e34;fill-opacity:1" />
    <path
       id="path83"
       d="m 3313.7502,489.5293 c -9.5178,0.30166 -19.2795,7.66656 -27.6701,12.76562 -20.04,13.454 -51.7796,29.89919 -68.8496,43.49219 -30.37,24.18 -48.7512,33.43752 -80.9212,51.97851 -2.4,0.83501 -10.489,3.48458 -12.379,4.39258 l -3.1506,-3.10156 c -1.29,-1.394 -5.9502,-4.70606 -7.7102,-6.03906 -9.86,7.012 -6.69,18.91905 -11.85,22.37304 l -3.0901,9.14844 c 2.07,4.928 4.3208,9.84785 5.8108,14.96485 17.74,31.516 38.54,45.16359 70.89,60.18359 11.61,-10.424 26.5001,-54.24264 31.6201,-69.18164 -9.41,-7.55 -11.8101,-10.42891 -19.5501,-19.50391 5.13,-4.307 12.3002,-12.30845 18.2402,-17.56445 22.03,-19.497 42.8797,-36.92711 62.0697,-59.41211 8.08,-1.744 27.2795,-5.9987 29.5595,-14.4707 -2.68,-2.234 -2.1597,-2.18302 -5.6597,-3.41602 l 3.3605,-3.85351 c 5.55,-3.542 21.5992,-16.24675 21.1792,-22.71875 -0.6319,-0.0454 -1.2649,-0.0572 -1.8994,-0.0371 z"
       style="fill:#754938;fill-opacity:1" />
    <path
       fill="rgb(2,2,3)"
       d="m 3101.22,615.391 c 5.16,-3.454 1.99,-15.362 11.85,-22.374 1.76,1.333 6.42,4.646 7.71,6.04 l 3.15,3.102 c 1.89,-0.908 9.98,-3.558 12.38,-4.393 l 0.59,2.297 c -9.14,8.109 -40.41,39.546 -6.69,50.241 8.49,2.693 45.13,-30.525 56.69,-39.303 7.74,9.075 10.14,11.954 19.55,19.504 -5.12,14.939 -20.01,58.758 -31.62,69.182 -32.35,-15.02 -53.15,-28.668 -70.89,-60.184 -1.49,-5.117 -3.74,-10.035 -5.81,-14.963 z"
       id="path84"
       style="fill:#cccccc;fill-opacity:1" />
    <path
       id="path85"
       d="m 3095.7597,589.04297 c 0.3,12.59 0.7298,14.77066 5.4598,26.34765 l -3.0901,9.14844 c 2.07,4.928 4.3208,9.84785 5.8108,14.96485 3.29,-20.505 4.9101,-24.08471 19.9901,-37.34571 l -3.1506,-3.10156 c -1.29,-1.394 -5.9502,-4.70606 -7.7102,-6.03906 -5.6199,0.64883 -11.7399,-2.09065 -17.3098,-3.97461 z m 11.232,11.57617 c -0.7129,1.64401 -1.202,3.31301 -1.6089,4.91992 0.4067,-1.60635 0.8964,-3.27646 1.6089,-4.91992 z m -4.8972,14.02734 c -0.1316,0.13968 -0.2689,0.27217 -0.4148,0.39649 0.1456,-0.12404 0.2835,-0.25716 0.4148,-0.39649 z"
       style="fill:#5f3e34;fill-opacity:1" />
    <path
       d="m 3093.4287,527.19531 c -27.3832,-0.46661 -45.0196,25.01407 -37.0883,53.42969 1.22,4.383 11.5,16.27728 11.85,19.61328 1.09,10.412 -3.3106,20.94416 4.5294,31.16016 9.5,4.785 17.7696,-0.73338 25.4096,-6.85938 l 3.0901,-9.14844 c -4.73,-11.577 -5.1598,-13.75765 -5.4598,-26.34765 5.57,1.884 11.6898,4.62361 17.3098,3.97461 1.76,1.333 6.4202,4.64506 7.7102,6.03906 l 1.2999,-3.43359 c 8.51,-6.06 13.38,-10.45355 10.97,-21.81055 -3.74,-17.6 -19.92,-35.60692 -34.02,-46.16992 -1.9075,-0.26856 -3.7754,-0.41616 -5.6009,-0.44727 z"
       style="fill:#cccccc;fill-opacity:1"
       id="path52" />
    <path
       fill="#754938"
       d="m 3099.03,527.642 c 14.1,10.563 30.28,28.57 34.02,46.17 2.41,11.357 -2.46,15.752 -10.97,21.812 l -1.3,3.433 c -1.29,-1.394 -5.95,-4.707 -7.71,-6.04 -5.62,0.649 -11.74,-2.09 -17.31,-3.974 -8.06,-3.275 -10.66,-4.745 -9.79,-13.162 2.63,-1.57 4.87,-2.758 7.6,-4.164 2.02,-6.197 3.74,-33.358 5.46,-44.075 z"
       id="path141" />
    <path
       fill="rgb(2,2,3)"
       d="m 2881.45,259.206 c 17.13,14.711 24.46,12.18 17.83,36.388 -7,7.663 -8.22,10.902 -18.35,12.13 5.49,18.599 15.59,7.542 19.68,28.84 -2.8,6.037 -6.63,11.542 -11.31,16.272 -4.28,4.263 -5.39,4.044 -10.2,4.214 -6.71,-3.091 -14.22,-16.011 -16.74,-16.593 -29.05,-6.704 -42.94,-22.19 -35.39,-53.3 2.56,-10.541 8.32,-18.047 18.92,-24.09 10.82,-4.558 23.6,-3.735 35.56,-3.861 z"
       id="path148"
       style="fill:#cccccc;fill-opacity:1" />
    <path
       fill="rgb(151,103,72)"
       d="m 2881.45,259.206 c 17.13,14.711 24.46,12.18 17.83,36.388 -7,7.663 -8.22,10.902 -18.35,12.13 -5.77,1.842 -8.32,2.607 -14.24,3.635 -8.37,-5.654 0,-12.765 -1.16,-14.875 -7.15,-12.935 -15.37,-18.529 -19.64,-33.417 10.82,-4.558 23.6,-3.735 35.56,-3.861 z"
       id="path149"
       style="fill:#754938;fill-opacity:1" />
    <path
       fill="rgb(2,2,3)"
       d="m 3240.96,298.871 c 4.51,5.008 7.39,8.739 12.84,12.62 9.93,6.927 20.35,14.262 29.95,21.613 8.56,1.557 13.26,1.64 18.73,7.986 l -0.61,5.035 c -10,13.463 -66.91,12.986 -79.34,5.719 -3.33,-6.545 -1.08,-16.964 0.08,-24.087 l 1.54,-7.748 -0.29,-3.107 c 3.46,-4.312 12.89,-13.613 17.1,-18.031 z"
       id="path184"
       style="fill:#cccccc;fill-opacity:1" />
    <path
       fill="#754938"
       d="m 3240.96,298.871 c 4.51,5.008 7.39,8.739 12.84,12.62 -9.23,16.322 -13.63,14.157 -29.65,8.518 l -0.29,-3.107 c 3.46,-4.312 12.89,-13.613 17.1,-18.031 z"
       id="path185" />
  </g>
</svg>
