<?xml version="1.0" encoding="UTF-8" standalone="no"?>
<svg
   version="1.1"
   style="display:block"
   viewBox="0 0 575.07902 600.93073"
   width="668.80286"
   height="600.93073"
   preserveAspectRatio="none"
   id="svg213"
   xmlns="http://www.w3.org/2000/svg"
   xmlns:svg="http://www.w3.org/2000/svg">
  <defs
     id="defs2">
    <linearGradient
       id="Gradient1"
       gradientUnits="userSpaceOnUse"
       x1="1212.26"
       y1="1519.13"
       x2="1097.65"
       y2="1453.72">
      <stop
         class="stop0"
         offset="0"
         stop-opacity="1"
         stop-color="rgb(0,0,0)"
         id="stop1" />
      <stop
         class="stop1"
         offset="1"
         stop-opacity="1"
         stop-color="rgb(58,35,26)"
         id="stop2" />
    </linearGradient>
  </defs>
  <g
     id="g275"
     transform="translate(-66.409866,-2672.9799)">
    <path
       fill="rgb(2,2,3)"
       d="m 479.72,2764.24 c 16.116,3.22 23.675,4.51 37.472,14.44 15.961,28.75 18.353,43.01 17.781,75.8 7.793,-2.38 31.233,-25.73 37.412,-32.98 0.861,-8.43 1.651,-22 7.503,-27.93 l 1.738,8.54 c 6.923,-3.71 22.055,-28.66 30.289,-8.14 -0.975,14.26 -9.128,24.51 -18.43,34.77 -18.937,20.88 -33.869,44.06 -55.252,62.61 l -1.851,1.59 c -0.214,9.58 -0.126,22.77 -0.977,32.02 14.427,-0.28 29.381,-0.84 43.735,0.06 0.065,9.98 -0.352,47.59 0.71,54.83 -4.143,15.76 -18.156,15.17 -33.069,18.35 2.021,11.94 7.722,37.68 3.595,47.77 -12.653,2.66 -38.116,8.8 -50.166,8.25 -6.342,-25.66 -15.697,-42.61 -26.463,-66.51 -15.671,-29.03 3.297,-61.73 -0.398,-89.95 -7.898,-60.31 -18.161,-75.09 6.371,-133.52 z"
       id="path41"
       style="fill:#cccccc;fill-opacity:1" />
    <path
       fill="rgb(85,56,38)"
       d="m 535.405,2924.96 c -2.179,-10.91 2.957,-22.54 -4.594,-29.37 -24.157,0.33 -34.108,-27.26 -43.773,-45.68 -9.393,-17.9 -23.32,-74.56 8.544,-76.17 20.498,8.08 14.548,44.57 20.983,60.43 2.573,6.34 10.455,22.14 17.025,23.18 l 1.383,-2.87 c 7.793,-2.38 31.233,-25.73 37.412,-32.98 0.861,-8.43 1.651,-22 7.503,-27.93 l 1.738,8.54 c 6.923,-3.71 22.055,-28.66 30.289,-8.14 -0.975,14.26 -9.128,24.51 -18.43,34.77 -18.937,20.88 -33.869,44.06 -55.252,62.61 l -1.851,1.59 c -0.214,9.58 -0.126,22.77 -0.977,32.02 z"
       id="path42"
       style="fill:#6c4834;fill-opacity:1" />
    <path
       fill="rgb(2,2,3)"
       d="m 132.21,2761.42 c 14.211,4.69 23.135,7.13 35.639,15.62 5.406,8.42 14.865,28.53 17.834,38.01 0.812,23.73 1.369,47.46 1.67,71.21 0.043,15.41 0.339,31.28 -0.529,46.63 12.01,9.95 44.999,36.15 51.494,47.64 -3.534,16.86 -19.715,36.64 -21.485,46.56 -7.554,2.03 -4.894,1.56 -13.248,-0.61 -3.554,7.57 1.433,11.33 -3.035,17.59 -11.183,2.79 -36.294,10.04 -46.209,10.77 -6.763,-14.54 -34.629,-80.26 -34.134,-90.42 2.173,-44.49 9.633,-60.58 0.411,-108.42 13.262,-20.3 28.135,-36.81 41.562,-56.65 -11.276,-23.3 -12.498,-29.28 -37.276,-15.48 2.386,-7.5 4.821,-14.98 7.306,-22.45 z"
       id="path55"
       style="fill:#cccccc;fill-opacity:1" />
    <path
       fill="rgb(85,56,38)"
       d="m 124.904,2783.87 c 24.778,-13.8 26,-7.82 37.276,15.48 -13.427,19.84 -28.3,36.35 -41.562,56.65 -20.9632,28.26 -19.274,81.96 -25.9497,116.81 -1.4251,7.44 5.4327,22.78 2.5956,34.16 l -5.7559,-7.12 c -5.8876,10.3 0.8521,22.24 -11.3769,27.22 -24.9303,-6.31 -8.8836,-38.16 -5.7697,-54.92 7.0404,-37.9 0.4599,-73.16 10.7387,-111.55 8.8931,-33.21 20.4929,-48.73 39.8039,-76.73 z"
       id="path111"
       style="fill:#6c4834;fill-opacity:1" />
    <path
       fill="rgb(85,56,38)"
       d="m 500.21,3054.22 c 12.05,0.55 37.513,-5.59 50.166,-8.25 -3.426,11.24 2.542,22.14 -1.35,35.02 -13.639,45.16 -29.978,89.5 -45.355,134.06 -1.571,4.55 -1.216,5.73 0.339,9.85 -5.729,3.14 -7.334,3.77 -13.52,6.04 -8.362,-1.54 -9.121,-4.47 -15.172,-11.71 1.518,-3.75 5.091,-25.84 5.779,-31.13 6.252,-48 4.332,-73.15 31.328,-114.11 -4.331,-7.92 -6.65,-12.54 -12.215,-19.77 z"
       id="path113"
       style="fill:#6c4834;fill-opacity:1" />
    <path
       fill="rgb(85,56,38)"
       d="m 200.55,3044.07 c -0.472,5.74 -0.923,28.43 -2.108,32.2 -11.708,37.3 -40.179,74.97 -58.261,110.08 -5.429,10.54 -12.43,20.06 -15.226,30.93 -5.261,2.29 -8.698,2.34 -14.172,1.49 -6.814,-4.02 -7.329,-6.01 -11.6819,-13.02 8.7399,-5.18 27.7629,-81.51 36.7429,-97.08 8.742,-15.16 16.572,-22.49 28.078,-35.25 -3.089,-8.38 -4.809,-10.82 -9.581,-18.58 9.915,-0.73 35.026,-7.98 46.209,-10.77 z"
       id="path116"
       style="fill:#6c4834;fill-opacity:1" />
    <path
       fill="rgb(85,56,38)"
       d="m 579.14,2925.02 c 14.675,1.13 25.322,2.88 39.287,8.22 24.586,42.16 -17.313,142.39 -8.931,168.27 -7.178,1.83 -8.03,2.37 -15.169,1.45 -6.232,-3.28 -7.612,-7.24 -11.453,-13.57 0.96,-40.87 -2.328,-69.39 6.047,-111.12 l -2.48,-1.24 -6.591,2.82 c -1.062,-7.24 -0.645,-44.85 -0.71,-54.83 z"
       id="path123"
       style="fill:#6c4834;fill-opacity:1" />
    <path
       fill="rgb(85,56,38)"
       d="m 238.318,2980.53 1.804,2.86 c 15.693,24.66 25.337,25.63 19.815,56.28 -4.054,22.51 -40.179,122.08 -39.438,138.45 -17.106,-2.67 -17.728,-1.81 -23.528,-19.03 4.569,-26.83 5.815,-56.11 12.637,-82.68 2.466,-9.6 19.272,-36.78 17.785,-44.94 -4.922,-3.51 -4.58,-3.27 -10.56,-4.38 1.77,-9.92 17.951,-29.7 21.485,-46.56 z"
       id="path129"
       style="fill:#6c4834;fill-opacity:1" />
    <path
       fill="rgb(85,56,38)"
       d="m 132.21,2761.42 0.39,-1.83 c 3.568,-17.55 -2.317,-26.63 -5.231,-43.74 -4.236,-24.87 5.783,-45.46 33.723,-41.51 28.654,4.06 27.517,52.12 21.299,72.87 -1.905,6.07 -9.87,6.15 -14.964,6.56 -2.079,6.23 -0.603,16.68 0.422,23.27 -12.504,-8.49 -21.428,-10.93 -35.639,-15.62 z"
       id="path163"
       style="fill:#6c4834;fill-opacity:1" />
    <path
       fill="rgb(85,56,38)"
       d="m 479.72,2764.24 0.591,-1.93 c 9.158,-30.89 -24.996,-66.61 10.342,-85.17 40.904,-21.48 47.318,46.01 37.527,70.42 -5.525,13.36 -20.274,-6.39 -10.988,31.12 -13.797,-9.93 -21.356,-11.22 -37.472,-14.44 z"
       id="path168"
       style="fill:#6c4834;fill-opacity:1" />
    <path
       fill="rgb(85,56,38)"
       d="m 245.925,2818.29 c -0.119,-9.83 -1.012,-19.73 1.794,-28.98 l 2.565,-2.43 1.888,9.23 2.334,-0.56 c 4.104,-7.37 8.943,-18.51 15,-23.23 7.776,-1.69 8.952,3.96 12.33,10.39 -1.534,26.94 -43.576,86.78 -61.191,110.06 -8.463,11.18 -23.788,-0.37 -33.292,-6.51 -0.301,-23.75 -0.858,-47.48 -1.67,-71.21 8.691,15.15 17.263,30.37 25.715,45.66 12.06,-13.92 24.069,-27.22 34.527,-42.42 z"
       id="path169"
       style="fill:#6c4834;fill-opacity:1" />
    <path
       fill="rgb(2,2,3)"
       d="m 99.1011,3205.75 c 4.3529,7.01 4.8679,9 11.6819,13.02 5.474,0.85 8.911,0.8 14.172,-1.49 5.96,6.74 8.809,17.16 14.054,24.63 7.215,10.28 23.329,12.66 21.596,26.97 -1.68,1.92 -3.372,5.02 -5.876,5.03 -20.678,0.12 -46.717,-16.38 -63.9722,-26.41 -11.6215,-6.75 1.5722,-33.84 8.3443,-41.75 z"
       id="path187"
       style="fill:#cccccc;fill-opacity:1" />
    <path
       fill="rgb(2,2,3)"
       d="m 609.496,3101.51 c 9,19.59 14.048,22.64 27.37,38.69 3.635,4.38 5.15,7.54 4.461,13.24 -10.435,10.71 -27.049,-3.64 -38.323,-7.72 -27.508,-9.98 -51.513,-29.42 -20.13,-56.33 3.841,6.33 5.221,10.29 11.453,13.57 7.139,0.92 7.991,0.38 15.169,-1.45 z"
       id="path189"
       style="fill:#cccccc;fill-opacity:1" />
    <path
       fill="rgb(2,2,3)"
       d="m 475.318,3219.23 c 6.051,7.24 6.81,10.17 15.172,11.71 6.186,-2.27 7.791,-2.9 13.52,-6.04 6.2,8.19 12.712,18 21.16,23.98 9.446,6.69 19.845,6.18 20.478,18.9 -12.133,15.42 -61.243,-2.7 -76.509,-9.57 -9.512,-4.27 1.477,-31.89 6.179,-38.98 z"
       id="path190"
       style="fill:#cccccc;fill-opacity:1" />
    <path
       fill="rgb(2,2,3)"
       d="m 196.971,3159.09 c 5.8,17.22 6.422,16.36 23.528,19.03 1.532,4.88 5.242,16.99 7.278,21.06 6.674,13.35 16.491,17.87 18.252,33.48 -7.908,15.35 -60.741,-29.44 -70.494,-36.93 2.933,-14.39 9.687,-27.54 21.436,-36.64 z"
       id="path191"
       style="fill:#cccccc;fill-opacity:1" />
  </g>
</svg>
