<?xml version="1.0" encoding="UTF-8" standalone="no"?>
<svg
   version="1.1"
   style="display:block"
   viewBox="0 0 564.53766 655.28735"
   width="656.54352"
   height="655.28735"
   preserveAspectRatio="none"
   id="svg213"
   xmlns="http://www.w3.org/2000/svg"
   xmlns:svg="http://www.w3.org/2000/svg">
  <defs
     id="defs2">
    <linearGradient
       id="Gradient1"
       gradientUnits="userSpaceOnUse"
       x1="1212.26"
       y1="1519.13"
       x2="1097.65"
       y2="1453.72">
      <stop
         class="stop0"
         offset="0"
         stop-opacity="1"
         stop-color="rgb(0,0,0)"
         id="stop1" />
      <stop
         class="stop1"
         offset="1"
         stop-opacity="1"
         stop-color="rgb(58,35,26)"
         id="stop2" />
    </linearGradient>
  </defs>
  <g
     id="g267"
     transform="translate(-87.604529,-64.5101)">
    <path
       d="m 87.709414,455.67969 c -0.593708,-16.62811 1.400512,-45.52483 4.277483,-74.70117 -2.877206,29.17631 -4.871089,58.07307 -4.277483,74.70117 z"
       style="fill:#cccccc"
       id="path12" />
    <path
       d="m 198.47223,211.24414 c -8.93093,21.10883 -31.01463,15.57482 -43.45668,-0.79687 -50.75873,23.92588 -45.73022,26.40909 -50.85621,80.75 4.972,9.388 18.64091,7.76528 27.72891,12.73828 l 0.41649,1.82226 c 4.051,42.285 2.32233,63.54986 -4.08267,104.75586 -2.632,15.781 -15.90541,95.8538 -5.18941,103.0918 16.497,3.535 24.34923,4.39916 40.71923,6.41015 10.422,-9.56399 10.05141,-46.70031 11.68541,-61.57031 1.917,10.217 7.57634,56.06421 11.41334,61.03321 10.638,-0.004 32.03612,-3.52986 42.76812,-5.63086 l 2.86006,-1.58008 c 8.329,-18.182 -12.26482,-123.20519 -13.84682,-147.49219 -1.177,-18.07185 0.80899,-39.12815 1.97499,-57.49805 -0.35676,-1.90591 -0.47759,-1.59501 0.0437,-2.58789 0.17411,-0.33167 0.42014,-0.80706 0.75238,-1.56054 9.759,-3.012 18.5074,-5.33304 28.4074,-7.83204 -4.97,-49.38193 0.41761,-66.09175 -51.33821,-84.05273 z"
       style="fill:#cccccc"
       id="path4" />
    <path
       id="path10"
       style="fill:#553826"
       d="m 104.15934,291.19727 c -2.93105,11.4795 -8.336168,50.8795 -12.172443,89.78125 -2.876971,29.17634 -4.871191,58.07306 -4.277483,74.70117 0.197868,5.5427 0.683663,9.72137 1.519875,12.09375 2.5894,5.802 3.399517,9.01589 8.298017,13.08789 l 2.393174,-0.50195 c 2.5669,-6.279 -0.02263,-12.9529 -1.605526,-19.8379 0.1578,-1.766 1.107061,-5.73992 1.504761,-7.66992 l 1.637435,-0.24804 4.32115,11.26757 1.50308,0.30469 c 4.54,-14.924 -1.44877,-29.14609 -1.24277,-42.49609 0.178,-11.501 9.07335,-36.66177 12.99535,-48.75977 4.778,-24.683 7.09278,-42.47411 13.27078,-67.16211 l -0.41649,-1.82226 c -9.088,-4.973 -22.75691,-3.35028 -27.72891,-12.73828 z" />
    <path
       d="m 195.32164,197.83984 -3.50327,-1.4375 -2.70219,2.29493 c 1.8919,5.5186 2.00103,2.8979 -0.0789,8.13281 -7.252,5.02 -14.46889,5.8717 -20.26389,-1.2793 l -0.27207,-4.73633 -2.38981,-3.66797 -2.64509,-0.47656 -4.39,3.13672 c -0.674,2.989 -0.79811,4.64602 -1.19911,6.05664 -0.40096,1.41077 -1.07874,2.5755 -2.86173,4.58399 12.44205,16.37169 34.52575,21.9057 43.45668,0.79687 -2.80626,-3.76872 -2.63271,-8.51485 -3.15059,-13.4043 z"
       style="fill:#553826"
       id="path3" />
    <path
       d="m 168.50129,200.81445 0.27207,4.73633 c 5.795,7.151 13.01189,6.2993 20.26389,1.2793 2.07996,-5.23491 1.97083,-2.61421 0.0789,-8.13281 -3.35098,1.42836 -5.72946,2.49282 -7.90335,3.11132 -3.6232,1.0311 -6.67716,0.82399 -12.71154,-0.99414 z"
       style="fill:#412819"
       id="path13" />
    <path
       fill="rgb(2,2,3)"
       d="m 529.767,262.958 9.673,-8.329 c -1.012,19.696 -1.982,47.443 16.14,60.082 -21.596,106.978 0.381,99.237 23.748,188.894 -17.055,15.024 -24.971,14.165 -40.977,23.584 -4.244,1.199 -4.162,1.32 -8.52,1.185 -14.502,-11.82 -10.588,-39.384 -25.761,-40.54 -7.816,6.863 -10.163,31.981 -20.015,39.689 -1.915,1.498 -6.026,0.377 -9.026,0.065 -14.83,-6.763 -29.441,-13.043 -40.681,-25.06 26.076,-89.777 42.036,-81.876 23.39,-182.086 17.508,-22.5 17.113,-38.653 16.829,-65.518 l 6.685,6.308 c 15.486,5.018 15.285,31.299 46.621,1.822 z"
       id="path34"
       style="fill:#cccccc" />
    <path
       fill="#553826"
       d="m 457.738,320.442 c -11.935,-40.266 -32.38,-76.383 -38.324,-116.143 -4.674,-31.264 25.631,-65.526 38.18,-91.817 5.744,-12.034 6.453,-31.8787 15.921,-44.1544 l 1.882,-0.2286 -0.053,6.8258 0.861,0.7991 c 3.302,-5.16 4.269,-7.6148 9.541,-10.8166 4.99,1.5686 3.771,1.8933 7.338,7.7192 l 1.961,-0.0875 c 6.403,7.2262 -7.489,14.8364 -6.432,24.5234 3.603,3.2156 4.126,3.2516 6.39,7.4046 -2.654,6.837 -14.248,11.909 -20.911,15.022 l -2.288,1.053 c -5.738,12.052 -29.722,68.929 -25.288,82.266 0.103,0.31 16.933,39.577 17.723,44.293 0.313,1.872 7.758,6.352 10.328,7.823 0.284,26.865 0.679,43.018 -16.829,65.518 z"
       id="path114" />
    <path
       fill="#553826"
       d="m 540.763,120.666 c -12.314,-6.899 -17.268,-8.509 -24.338,-20.8112 l 1.818,-1.034 c 1.866,1.0432 3.757,2.0332 5.649,3.0302 l 1.343,-1.456 c -3.093,-13.5566 -9.527,-20.5082 -6.627,-32.5411 5.211,-4.0446 2.263,-2.7058 9.474,-3.3438 2.864,3.9239 4.603,6.6155 7.993,10.1404 L 537.49,68.43 c 6.31,7.7518 13.51,32.598 18.837,43.78 7.773,16.313 39.476,68.884 38.288,84.746 -2.176,29.031 -18.468,66.65 -29.706,93.286 -3.579,8.484 -4.701,16.192 -9.329,24.469 -18.122,-12.639 -17.152,-40.386 -16.14,-60.082 14.858,-9.914 21.681,-39.567 29.364,-58.723 -6.748,-20.934 -18.472,-56.209 -28.041,-75.24 z"
       id="path115" />
    <path
       fill="#553826"
       d="m 579.328,503.605 c 2.436,16.484 5.357,34.155 14.45,48.254 23.025,35.699 29.084,74.577 42.308,114.48 -10.543,0.754 -11.569,0.891 -19.05,9.111 -3.713,-15.864 -18.743,-35.637 -25.698,-50.602 -16.109,-34.659 -33.249,-64.908 -52.987,-97.659 16.006,-9.419 23.922,-8.56 40.977,-23.584 z"
       id="path143" />
    <path
       fill="#553826"
       d="m 434.348,502.528 c 11.24,12.017 25.851,18.297 40.681,25.06 -13.397,15.126 -41.532,73.216 -50.68,92.352 -7.941,16.61 -23.68,38.404 -28.895,55.426 l -1.181,0.32 c -6.078,-9.775 -7.47,-8.239 -17.835,-8.94 8.831,-23.241 14.321,-56.363 24.117,-77.706 16.838,-36.686 25.998,-45.316 33.793,-86.512 z"
       id="path144" />
    <path
       fill="#553826"
       d="m 479.648,216.49 c -5.762,-16.345 -8.204,-33.318 4.16,-47.747 5.033,-5.952 12.34,-9.51 20.13,-9.8 14.328,-0.444 22.249,7.162 31.46,16.193 2.94,14.527 3.802,25.711 -1.148,40.078 -3.857,17.631 -17.047,27.836 -7.915,45.264 l 3.432,2.48 -1.894,0.096 c -31.336,29.477 -31.135,3.196 -46.621,-1.822 4.53,-1.518 3.092,-0.772 6.798,-3.561 8.064,-16.488 -10.267,-27.51 -8.402,-41.181 z"
       id="path145" />
    <path
       fill="rgb(25,24,24)"
       d="m 479.648,216.49 c -5.762,-16.345 -8.204,-33.318 4.16,-47.747 5.033,-5.952 12.34,-9.51 20.13,-9.8 14.328,-0.444 22.249,7.162 31.46,16.193 2.94,14.527 3.802,25.711 -1.148,40.078 -6.617,-4.426 -6.329,-5.134 -8.381,-15.113 -0.9,-4.594 -1.739,-9.199 -2.515,-13.816 -54.875,-3.851 -26.398,11.199 -43.706,30.205 z"
       id="path146"
       style="fill:#e9c6af" />
    <path
       fill="#412819"
       d="m 516.208,252.175 1.497,-0.27 0.944,1.914 -2.385,5.015 c -5.943,4.311 -2.71,3.246 -10.047,3.315 -2.452,-1.803 -4.937,-3.795 -7.352,-5.667 l -0.05,-2.502 c 6.477,-1.156 10.79,-1.394 17.393,-1.805 z"
       id="path147" />
    <path
       d="m 206.59223,161.92578 c -15.926,-5.46 -3.3968,-22.33983 -14.0198,-26.79883 -44.158,-18.531 -36.96166,20.20172 -43.89166,30.38672 -2.18,10.212 9.45162,17.28197 10.39562,34.29297 l 4.39,-3.13672 2.64509,0.47656 2.38981,3.66797 c 9.655,2.909 11.67889,1.69182 20.61489,-2.11718 l 2.70219,-2.29493 3.50327,1.4375 c 0.034,-11.588 7.44359,-22.06706 11.27059,-35.91406 z"
       style="fill:#553826"
       id="path2" />
    <path
       d="m 175.81013,103.23242 c -22.44139,0.13296 -42.80421,24.27555 -29.98437,55.09961 0.784,1.885 2.30301,5.31164 2.85501,7.18164 6.93,-10.185 -0.26634,-48.91772 43.89166,-30.38672 10.623,4.459 -1.9062,21.33883 14.0198,26.79883 3.815,-8.36 6.00009,-28.73044 1.72309,-36.64844 -8.42497,-15.59696 -20.75017,-22.11457 -32.50519,-22.04492 z"
       style="fill:#e9c6af"
       id="path1" />
    <path
       d="m 229.61876,513.84766 c -10.732,2.101 -32.13012,5.62686 -42.76812,5.63086 11.219,16.438 12.55287,63.56034 14.86287,84.40234 2.574,23.227 9.1758,49.64286 8.5768,72.63086 3.118,-2.464 4.59197,-4.89822 7.06197,-8.07422 6.192,-2.142 5.15735,-1.03908 12.99535,1.41992 -0.926,-26.592 4.80287,-55.5352 3.97687,-81.7832 -0.904,-28.683 -8.22474,-44.25956 -4.70574,-74.22656 z"
       style="fill:#553826"
       id="path6" />
    <path
       d="m 163.75189,520.01562 c -16.37,-2.01099 -24.22223,-2.87515 -40.71923,-6.41015 2.913,32.126 -3.46097,45.80933 -4.82497,76.36133 -1.026,22.977 5.61625,54.95737 5.43125,78.35937 7.605,-1.065 6.03295,-1.97594 12.06495,0.66406 l 2.09088,3.1211 4.66879,1.28125 c -0.167,-18.485 6.35609,-46.70549 8.30809,-66.02149 2.118,-20.966 4.45724,-68.73447 12.98024,-87.35547 z"
       style="fill:#553826"
       id="path8" />
    <path
       d="m 249.81044,295.29687 c -9.9,2.499 -18.6484,4.82004 -28.4074,7.83204 -0.33224,0.75348 -0.57827,1.22887 -0.75238,1.56054 -0.52126,0.99288 -0.40043,0.68198 -0.0437,2.58789 4.295,8.15 9.05509,45.76378 11.81809,58.05078 4.029,17.916 10.39896,37.21924 14.47996,54.61524 1.122,4.782 -7.42728,32.32025 -0.47528,43.90625 l 2.35287,-1.42774 2.28569,-11.20117 1.90279,-0.36328 c 4.398,9.842 -4.12529,22.1715 0.13771,29.9375 3.683,-0.386 4.49021,-0.98712 6.91921,-3.95312 16.241,-19.828 -8.00355,-149.86772 -9.99255,-178.13672 z"
       style="fill:#553826"
       id="path5" />
    <path
       d="m 142.46356,673.39258 -4.66879,-1.28125 -2.09088,-3.1211 c -6.032,-2.64 -4.45995,-1.72906 -12.06495,-0.66406 -3.574,8.07 -7.59119,15.97397 -9.41819,24.54297 -3.999,6.489 -4.90892,7.18219 -5.56392,14.49219 6.699,17.6 51.03773,21.16325 33.80673,-33.96875 z"
       style="fill:#cccccc"
       id="path9" />
    <path
       d="m 230.34763,669.85742 c -7.838,-2.459 -6.80335,-3.56192 -12.99535,-1.41992 -2.47,3.176 -3.94397,5.61022 -7.06197,8.07422 -3.307,4.766 -3.93943,23.36311 -2.33943,29.28711 4.585,16.978 27.72831,19.06794 35.72631,3.21094 0.934,-9.412 -9.30256,-29.61235 -13.32956,-39.15235 z"
       style="fill:#cccccc"
       id="path7" />
    <path
       fill="rgb(2,2,3)"
       d="m 617.036,675.45 c 7.481,-8.22 8.507,-8.357 19.05,-9.111 4.579,8.162 10.536,18.606 11.646,27.972 9.986,15.756 2.151,26.923 -14.832,23.658 -6.277,-1.176 -11.729,-5.033 -14.928,-10.562 -4.801,-8.161 -2.767,-20.771 -0.608,-29.556 z"
       id="path199"
       style="fill:#cccccc;fill-opacity:1" />
    <path
       fill="rgb(2,2,3)"
       d="m 376.438,666.746 c 10.365,0.701 11.757,-0.835 17.835,8.94 l 1.181,-0.32 c 2.151,10.001 4.589,24.627 -1.456,33.522 -9.904,14.575 -40.448,13.951 -30.696,-11.2 3.999,-11.572 6.558,-20.572 13.136,-30.942 z"
       id="path200"
       style="fill:#cccccc;fill-opacity:1" />
  </g>
</svg>
