<?xml version="1.0" encoding="UTF-8" standalone="no"?>
<svg
   version="1.1"
   style="display:block"
   viewBox="0 0 550.04337 604.38232"
   width="639.68701"
   height="604.38232"
   preserveAspectRatio="none"
   id="svg213"
   xmlns="http://www.w3.org/2000/svg"
   xmlns:svg="http://www.w3.org/2000/svg">
  <defs
     id="defs2">
    <linearGradient
       id="Gradient1"
       gradientUnits="userSpaceOnUse"
       x1="1212.26"
       y1="1519.13"
       x2="1097.65"
       y2="1453.72">
      <stop
         class="stop0"
         offset="0"
         stop-opacity="1"
         stop-color="rgb(0,0,0)"
         id="stop1" />
      <stop
         class="stop1"
         offset="1"
         stop-opacity="1"
         stop-color="rgb(58,35,26)"
         id="stop2" />
    </linearGradient>
  </defs>
  <g
     id="g276"
     transform="translate(-1050.5466,-2669.1771)">
    <path
       fill="rgb(2,2,3)"
       d="m 1410.98,3003.92 c 6.74,8.02 10.78,13.19 22.37,12.59 14.72,-0.76 21.41,0.22 32.36,-9.58 l 4.59,0.92 c 26.32,3.51 66.7,14.26 83.98,35.33 13.04,15.91 6.1,65.02 4.5,84.82 -2.31,29.44 -4.79,58.87 -7.43,88.29 l -25.48,0.14 c -6.04,-57.2 -11.37,-77.48 -1.2,-134.4 -19.45,1.74 -33.34,1.74 -52.93,0.51 -0.18,32.99 -1.61,108.59 -20.82,136.17 -8.14,11.68 -92.37,4.5 -108,-0.82 0.35,-5.56 -1.01,-19.16 -1.04,-26.58 33.5,-9.61 46.74,-12.46 80.87,-7.26 -3.2,-33.67 -5.12,-67.23 -8.01,-100.82 -0.91,-10.59 -11.62,-26.25 -11.05,-40.98 0.62,-15.88 2.89,-23.24 7.29,-38.33 z"
       id="path33"
       style="fill:#cccccc;fill-opacity:1" />
    <path
       id="path63"
       d="m 1420.6201,2837.0801 -1.7097,7.2304 c -3.77,5.48 -5.1797,7.1998 -7.6497,13.2598 l -1.2713,1.4297 c -23.23,25.71 -47.0899,37.7698 -57.4799,73.5898 12.38,35.45 45.2007,48.9801 58.4707,71.3301 6.74,8.02 10.7799,13.1899 22.3699,12.5899 14.72,-0.76 21.4091,0.2199 32.3591,-9.5801 l 4.5915,0.9199 0.049,-17.5898 c -0.16,-11.27 0.1014,-23.0804 0.1814,-34.4004 2.16,-40.19 25.4685,-41.2685 -9.6315,-78.7285 -3.91,-14.1 -12.7999,-14.7808 -14.0399,-37.5508 l -2.1396,2.5097 c -9.23,-0.17 -15.2597,-2.4697 -24.0997,-5.0097 z m -15.9595,77.5703 c 3.15,13.21 6.2089,26.7999 9.5189,39.9199 1.79,9.81 2.7612,18.4403 3.8812,28.3203 -8.57,-9.27 -27.9506,-37.3502 -36.7206,-48.9902 6.94,-6.88 15.5505,-13.18 23.3205,-19.25 z"
       style="fill:#cc9f6d;fill-opacity:1" />
    <path
       fill="rgb(2,2,3)"
       d="m 1420.62,2837.08 c 8.84,2.54 14.87,4.84 24.1,5.01 l 2.14,-2.51 c 1.24,22.77 10.13,23.45 14.04,37.55 35.1,37.46 11.79,38.54 9.63,78.73 -19.19,1.69 -36.75,3.05 -55.57,-1.24 -0.26,-0.01 -0.52,-0.03 -0.78,-0.05 -3.31,-13.12 -6.37,-26.71 -9.52,-39.92 2.04,-2.58 0.67,-1.42 4.52,-2.96 38.86,36.71 43.76,-48.73 17.98,-58.74 -6.61,-0.21 -9.86,1.92 -15.9,4.62 2.47,-6.06 3.88,-7.78 7.65,-13.26 z"
       id="path64"
       style="fill:#cccccc;fill-opacity:1" />
    <path
       id="path231"
       style="fill:#cc9f6d"
       d="m 1467.7698,2763.1094 c -10.6999,18.1698 -12.2502,21.1402 -32.0702,30.4902 -5.73,9.64 4.6102,37.6602 9.0202,48.4902 -9.23,-0.17 -15.2597,-2.4697 -24.0997,-5.0097 l -1.7097,7.2304 c 21.44,6.57 26.0789,18.3804 41.9889,32.8204 -3.9099,-14.0999 -12.7998,-14.7814 -14.0399,-37.5508 l 3.4008,-2.9395 c 33.53,1.72 23.1596,-53.2112 17.5096,-73.5312 z" />
    <path
       fill="#191818"
       d="m 1465.71,3006.93 c -2.61,-8.24 -3.78,-6.34 -10.47,-13.67 3.9,-2.76 9.69,-2.45 15.11,-3 l -0.05,17.59 z"
       id="path67" />
    <path
       d="m 1167.6994,2876.1895 c -18.4898,2.1398 -37.9501,-1.0597 -56.6099,-2.5997 3.83,11.15 4.3297,22.8404 4.1297,34.5704 -11.96,-8.78 -14.459,-19.3502 -23.779,-31.1602 -2.89,-6.05 -9.0406,-15.8395 -12.6006,-21.9395 6.4098,-7.0498 16.0908,-15.9608 23.1508,-22.8007 3.59,-3.56 3.2296,-3.5406 8.0696,-4.8106 2.91,1.06 10.46,4.001 13.17,3.291 20.55,-5.43 22.0199,-43.7995 3.0599,-52.0195 -6.87,-2.98 -13.1504,0.1587 -19.3704,2.6387 l -2.19,2.5605 c -44.89,51.75 -87.1699,60.0606 -16.4499,120.5606 5.49,7.67 11.7006,13.5104 18.3006,20.2304 11.03,19.85 46.14,17.0891 50.25,1.0391 -1.68,-5.48 -5.3998,-7.3702 -10.0598,-10.9902 8.67,-2.08 11.4394,-1.9096 20.5494,-2.0996 z"
       style="fill:#cc9f6d"
       id="path235" />
    <path
       d="m 1156.9393,2801.1602 c -10.9181,-8.685 -14.836,-16.5033 -21.3387,-21.8829 -1.445,-1.1954 -3.018,-2.2696 -4.8233,-3.207 -1.9495,-1.0122 -4.2072,-1.8501 -6.8319,-2.5195 -3.4515,-0.8802 -7.5657,-1.4596 -12.7149,-1.6602 l -4.311,9.4688 c 6.22,-2.48 12.5004,-5.6187 19.3704,-2.6387 18.96,8.22 17.4901,46.5895 -3.0599,52.0195 -2.71,0.71 -10.26,-2.231 -13.17,-3.291 -4.84,1.27 -4.4796,1.2506 -8.0696,4.8106 l 9.0991,41.33 c 18.6598,1.54 38.1201,4.7395 56.6099,2.5997 -0.062,-2.4044 -0.027,-4.6561 0.086,-6.7754 0.3387,-6.358 1.3758,-11.5182 2.5645,-15.9805 0.7925,-2.9749 1.6527,-5.6399 2.4184,-8.1445 1.5312,-5.0093 2.6852,-9.3762 2.1664,-14.2911 -0.065,-0.6143 -0.1558,-1.2372 -0.2754,-1.871 -0.3589,-1.9015 -0.9765,-3.9002 -1.9196,-6.0606 -0.6287,-1.4403 -1.4021,-2.9528 -2.3411,-4.5547 -2.817,-4.8056 -7.1214,-10.4215 -13.4589,-17.3515 z"
       style="fill:#cccccc;fill-opacity:1"
       id="path234" />
    <path
       fill="#cc9f6d"
       d="m 1091.44,2877 c 9.32,11.81 11.82,22.38 23.78,31.16 0.91,5.32 -0.09,2.75 5.08,7.14 4.69,0.19 21.68,0.03 26.47,-0.54 4.66,3.62 8.38,5.51 10.06,10.99 -4.11,16.05 -39.22,18.81 -50.25,-1.04 -6.6,-6.72 -12.81,-12.56 -18.3,-20.23 l 3.25,-0.34 c 6.39,3.07 9.07,9.55 13.99,15.13 6.07,2.1 3.42,2.45 8.48,0.92 -2,-10.5 -23.9,-26.71 -22.56,-43.19 z"
       id="path71" />
    <path
       fill="rgb(2,2,3)"
       d="m 1146.77,2914.76 c 8.67,-2.08 11.44,-1.91 20.55,-2.1 -0.4,32.08 -2.98,64.63 -3.43,96.99 -0.58,42.03 -15.29,85.53 -20.41,127.12 -3.9,25.97 -1.78,52.72 -5.14,78.02 -11.37,0.77 -15.92,1.09 -27.37,0.02 -3.73,-26.54 -10.64,-67.49 -8.03,-93.35 3.7,-20.77 11.2,-35.78 10.79,-57.55 -0.7,-36.51 -11.73,-70.3 -16.21,-105.79 -0.99,-7.83 6.13,-25.4 9.06,-33.41 11.03,19.85 46.14,17.09 50.25,1.04 -1.68,-5.48 -5.4,-7.37 -10.06,-10.99 z"
       id="path79"
       style="fill:#cccccc;fill-opacity:1" />
    <path
       d="m 1135.7769,2669.207 c -6.5494,-0.3189 -13.125,1.8875 -19.0463,7.8125 -19.87,19.9 -20.6598,48.66 -17.5398,74.67 5.26,3.27 11.9898,7.7914 17.5298,10.1914 6.25,1.47 15.8499,4.5497 21.4999,2.5097 2.39,-4.68 1.5195,-3.4503 -0.2905,-10.0703 -1.95,-4.64 -8.2195,-24.5605 -8.9295,-30.0605 -1.2,-9.18 12.8095,-9.4989 17.7095,-12.5489 1.75,-1.09 6.4707,-6.1107 8.2207,-8.0507 l 1.8894,-2.1094 c 4.1,-6 5.2198,-8.5507 8.3198,-15.2207 -7.6062,-9.0438 -18.4471,-16.5915 -29.363,-17.1231 z"
       style="fill:#cccccc;fill-opacity:1"
       id="path232" />
    <path
       d="m 1165.1399,2686.3301 c -3.1,6.67 -4.2198,9.2207 -8.3198,15.2207 l -1.8894,2.1094 c -1.75,1.94 -6.4707,6.9607 -8.2207,8.0507 -4.9,3.05 -18.9095,3.3689 -17.7095,12.5489 0.71,5.5 6.9795,25.4205 8.9295,30.0605 1.81,6.62 2.6805,5.3903 0.2905,10.0703 -5.65,2.04 -15.2499,-1.0397 -21.4999,-2.5097 -2.34,3.56 -4.2301,5.9097 -5.4901,10.0097 29.01,1.13 26.2988,13.8296 45.7088,29.2696 -4.16,-11.21 -18.5098,-29.9004 -8.7598,-41.4004 4.75,0.14 5.9999,-0.06 10.7399,-0.7305 14.83,-9.68 11.6011,-48.9397 8.0511,-64.4297 z"
       style="fill:#cc9f6d"
       id="path233" />
    <path
       d="m 1435.1017,2746.8008 c -5.6359,0.1703 -11.0796,1.8324 -15.6421,5.3887 -19.82,15.43 -18.7996,49.6599 -17.5096,72.6699 6.69,6.25 9.8801,9.3307 18.6701,12.2207 8.84,2.54 14.8697,4.8397 24.0997,5.0097 -4.41,-10.83 -14.7502,-38.8502 -9.0202,-48.4902 19.82,-9.35 21.3703,-12.3204 32.0702,-30.4902 -6.937,-9.8311 -20.2689,-16.6833 -32.6681,-16.3086 z"
       style="fill:#cccccc;fill-opacity:1"
       id="path229" />
    <path
       fill="rgb(2,2,3)"
       d="m 1110.97,3214.81 c 11.45,1.07 16,0.75 27.37,-0.02 l 0.17,11.74 c 11.92,12.59 44.88,28.11 45.68,35.07 -8.5,13.12 -24.69,10.01 -37.67,11.37 -32.55,3.43 -56.86,-7.7 -35.7,-44.21 z"
       id="path174"
       style="fill:#cccccc;fill-opacity:1" />
    <path
       fill="#cc9f6d"
       d="m 1110.97,3214.81 c 11.45,1.07 16,0.75 27.37,-0.02 l 0.17,11.74 c -6.76,15.65 -17.31,15.32 -27.69,2.23 z"
       id="path175" />
    <path
       fill="rgb(2,2,3)"
       d="m 1336.68,3241.57 c 3.93,6.38 27.96,26.2 4.45,30.55 -16.77,3.11 -28.92,-17.04 -33.55,-31.03 -8.67,-26.15 -19.48,-52.07 20.8,-52.16 l 13.5,2.38 c 0.03,7.42 1.39,21.02 1.04,26.58 l -2.29,0.63 c -1.6,7.41 -2.74,15.53 -3.95,23.05 z"
       id="path182"
       style="fill:#cccccc;fill-opacity:1" />
    <path
       fill="#cc9f6d"
       d="m 1328.38,3188.93 13.5,2.38 c 0.03,7.42 1.39,21.02 1.04,26.58 l -2.29,0.63 c -14.87,-10.26 -15.3,-12.24 -12.25,-29.59 z"
       id="path183" />
    <path
       fill="rgb(2,2,3)"
       d="m 1552,3226.71 c 5.27,4.21 14.15,15.26 19.75,18.47 11,6.3 22.31,3.56 28.84,15.78 -1.59,12.98 -30.43,11.34 -40.38,10.55 -9.89,-0.93 -29.81,1.35 -37.74,-2.85 -6.6,-3.49 -5.84,-27.28 -0.33,-33.84 4.49,-2.13 5.73,-1.46 10.55,-0.53 l 10.08,1.87 c 6.92,-3.22 4.64,-1.88 9.23,-9.45 z"
       id="path192"
       style="fill:#cccccc;fill-opacity:1" />
  </g>
</svg>
