<?xml version="1.0" encoding="UTF-8" standalone="no"?>
<svg
   version="1.1"
   style="display:block"
   viewBox="0 0 508.47698 216.05659"
   width="591.34631"
   height="216.05659"
   preserveAspectRatio="none"
   id="svg213"
   xmlns="http://www.w3.org/2000/svg"
   xmlns:svg="http://www.w3.org/2000/svg">
  <defs
     id="defs2">
    <linearGradient
       id="Gradient1"
       gradientUnits="userSpaceOnUse"
       x1="1212.26"
       y1="1519.13"
       x2="1097.65"
       y2="1453.72">
      <stop
         class="stop0"
         offset="0"
         stop-opacity="1"
         stop-color="rgb(0,0,0)"
         id="stop1" />
      <stop
         class="stop1"
         offset="1"
         stop-opacity="1"
         stop-color="rgb(58,35,26)"
         id="stop2" />
    </linearGradient>
  </defs>
  <g
     id="g332"
     transform="translate(-2901.972,-1756.9727)">
    <path
       d="m 3397.3685,1831.4473 c 2.3327,-0.9097 3.4281,0.2256 3.3387,2.8379 0.09,-2.6135 -1.0051,-3.7483 -3.3387,-2.8379 z"
       id="path332" />
    <path
       d="m 3392.0901,1832.582 c 2.4022,-0.8758 4.0088,-0.5078 4.0088,-0.5078 0,0 0,0 0,0 0,0 -1.6083,-0.3662 -4.0105,0.5097 z"
       style="fill:#170e09"
       id="path331" />
    <path
       id="path330"
       style="fill:#e6c47d;fill-opacity:1"
       d="m 3398.7221,1831.1387 c -0.3924,0.01 -0.8433,0.1096 -1.3536,0.3086 -0.388,0.1515 -0.8112,0.3577 -1.2679,0.625 0,0 -1.6066,-0.368 -4.0088,0.5078 -0.3426,0.125 -0.7039,0.2767 -1.0765,0.457 -0.3727,0.1803 -0.7608,0.3917 -1.1588,0.6367 -2.7904,1.7184 -6.1443,5.1393 -9.2519,11.875 -2.4635,2.5793 -4.9626,5.3211 -7.539,7.9844 -0.5391,0.5572 -1.1266,1.0243 -1.6727,1.5723 -2.0705,2.0773 -4.1503,4.1577 -6.3499,5.9492 -0.5826,0.4745 -1.1935,0.8668 -1.7869,1.3105 -0.8134,0.608 -1.6147,1.251 -2.4502,1.791 -0.7069,0.4575 -1.4491,0.7966 -2.1732,1.1973 -0.7695,0.4257 -1.5223,0.9077 -2.3126,1.2617 -0.4226,0.1893 -0.8542,0.3449 -1.283,0.5118 -0.3383,0.1317 -0.6721,0.2794 -1.0144,0.3964 -0.4591,0.157 -0.9291,0.275 -1.3956,0.4043 -0.3273,0.091 -0.6497,0.1989 -0.9808,0.2754 -0.4834,0.1116 -0.9777,0.1799 -1.4695,0.2598 -0.3291,0.053 -0.6528,0.1274 -0.9858,0.166 -0.4897,0.057 -0.9915,0.066 -1.4897,0.09 -0.3202,0.015 -0.6334,0.057 -0.9572,0.058 -0.055,7e-4 -0.1097,2e-4 -0.1646,0 h -0.037 v 0 c -0.088,3e-4 -0.1768,9e-4 -0.2654,0 -0.044,0 -0.088,-10e-5 -0.1327,0 -2.378,-0.04 -4.8808,-0.5035 -7.5322,-1.4746 -0.9001,-0.3297 -1.8169,-0.7174 -2.7525,-1.1679 -0.3952,-0.1897 -0.7938,-0.3916 -1.1941,-0.6036 v 0 0 0 c -4.3033,-7.4115 -3.8282,-13.1964 -5.312,-13.8828 l -8.3937,1.6367 -9.1881,1.793 0.6919,3.8242 0.034,0.1836 2.2336,4.6191 c 2.7682,4.9103 5.6554,7.0689 12.7334,9.166 l 1.7214,2.3614 v 0 0 c 7.73,8.32 35.8294,5.2788 44.6994,0.5488 0.026,-0.076 0.067,-0.1644 0.1142,-0.2597 6e-4,0 0,0 0,0 1.0183,-2.0265 6.7509,-8.2027 11.6216,-13.5196 l -2.2991,0.6368 c -1.5184,0.4386 -1.9017,0.4491 -2.19,0.5722 0.2886,-0.1241 0.6693,-0.1344 2.1917,-0.5742 l 2.2991,-0.6367 c 0.1586,-0.173 0.3167,-0.3465 0.4736,-0.5176 0.1802,-0.1966 0.3592,-0.3906 0.5357,-0.584 6.6503,-7.6999 11.3116,-16.2696 13.9342,-25.1797 0.4577,-2.9278 -0.1418,-4.6124 -1.8424,-4.5722 z m -17.9295,32.2793 c -0.1463,0.114 -0.3401,0.2789 -0.6516,0.5312 v 0 c 0.311,-0.252 0.5052,-0.4154 0.6516,-0.5293 z" />
    <path
       d="m 3346.4703,1868.7793 c -3.3321,-0.035 -6.8563,-0.842 -10.6122,-2.6445 0.9356,0.4505 1.8524,0.8382 2.7525,1.1679 0.915,0.3351 1.8135,0.6069 2.6938,0.8243 1.7241,0.4254 3.3843,0.6361 4.9879,0.6523 0.059,6e-4 0.1188,0 0.178,0 z"
       style="fill:#170e09"
       id="path329" />
    <path
       d="m 3347.1555,1868.75 c -0.194,0 -0.3824,0.03 -0.5777,0.029 0.055,3e-4 0.1098,10e-5 0.1646,0 0.1402,0 0.2738,-0.025 0.4131,-0.029 z"
       style="fill:#af714b"
       id="path328" />
    <path
       d="m 3347.1555,1868.75 c -0.1393,0 -0.2729,0.028 -0.4131,0.029 0.3238,-7e-4 0.6371,-0.044 0.9573,-0.059 -0.1816,0.01 -0.3614,0.025 -0.5442,0.029 z"
       style="fill:#af714b"
       id="path327" />
    <path
       d="m 3348.0876,1868.6816 c -0.5132,0.041 -1.0217,0.097 -1.5467,0.098 0.012,10e-5 0.025,-10e-5 0.037,0 0.1953,0 0.3837,-0.025 0.5777,-0.029 0.3143,-0.01 0.6221,-0.043 0.9321,-0.068 z"
       style="fill:#af714b"
       id="path326" />
    <path
       d="m 3349.0281,1814.3418 2.6904,0.5996 c 5.55,12.37 4.6506,10.0104 17.8506,12.6504 5.72,0.79 11.199,0.6794 15.229,4.3594 0.1025,1.3025 7e-4,2.5314 -0.2637,3.7109 0,0 0,0 0,0 0.2643,-1.1796 0.3661,-2.4085 0.2636,-3.711 -4.03,-3.68 -9.5089,-3.5694 -15.2289,-4.3594 -13.2,-2.64 -12.3006,-0.2803 -17.8506,-12.6503 l -2.6904,-0.5997 z"
       id="path325" />
    <path
       d="m 3324.176,1851.1543 c -10e-4,0 0,0 0,0 v 0 c -0.01,0.011 -0.014,0.021 -0.022,0.031 0.02,7e-4 0.04,0 0.061,0 l 0.099,-0.1309 z"
       style="fill:#170e09;stroke-width:0.927288"
       id="path324" />
    <path
       id="path323"
       style="fill:#af714b"
       d="m 3349.3153,1814.4434 c -0.5443,0.01 -1.019,0.2403 -1.3318,0.9961 -4.747,4.9456 -5.5019,12.0282 -8.5063,17.9218 -1.354,2.5011 -3.1383,4.7249 -4.9761,6.8926 -4.1714,4.0427 -19.1717,7.663 -25.282,9.0039 v 0 c -3.97,-7.5702 -10.1192,-15.9636 -15.0375,-21.539 -0.054,-0.061 -0.1076,-0.1232 -0.1612,-0.1836 -0.7984,-0.8972 -1.7455,-1.4732 -2.798,-1.8262 -2.3164,-0.7763 -5.1494,-0.4735 -8.0528,-0.1406 -1.114,0.1277 -2.2402,0.2606 -3.3504,0.3379 -11.8399,22.2399 -4.059,39.6503 -5.789,66.5703 -0.23,16.23 -0.4109,60.1591 10.1991,72.3691 25.08,7.94 56.3208,0.1496 82.1808,-1.1504 10.83,-0.55 22.4705,-0.1887 33.4305,-0.2187 8.76,-5.3 13.6002,-21.4598 8.5802,-30.2598 l -7.5708,-3.1914 c -2.42,-1.01 -1.5094,-0.4484 -3.2094,-1.8184 -4.06,4.75 -11.1211,10.6393 -15.9511,14.9493 -30.3,4.6 -49.0591,0.55 -78.8891,-4.5 1.5377,-4.6546 2.3332,-9.6647 4.17,-14.1797 4.2282,-12.9094 1.1999,-49.4783 5.2549,-64.17 0.097,-0.3522 0.1983,-0.691 0.3039,-1.0175 v 0 0 l -0.023,-0.127 -0.089,-0.2344 0.042,-0.027 -0.6919,-3.8242 9.1881,-1.793 c 5.1107,-0.8261 8.3937,-1.6387 8.3937,-1.6387 1.4838,0.6864 1.0087,6.4713 5.312,13.8828 0.9414,0.6004 0.8383,0.7203 2.2505,1.082 5.7693,2.6577 12.6718,2.9509 18.445,0.1485 5.8951,-2.811 10.68,-7.3955 15.0728,-12.1407 3.1292,-3.2045 6.1424,-6.538 9.1143,-9.8847 2.8801,-3.6271 5.7115,-7.935 5.2582,-12.7871 -4.788,-4.3351 -11.6774,-3.4408 -17.5432,-4.8008 -3.5347,-0.8831 -7.7059,-0.5532 -10.5871,-3.1035 -2.4286,-2.5722 -3.3659,-6.2588 -5.1104,-9.1426 -0.7316,-0.105 -1.5456,-0.467 -2.2454,-0.457 z" />
    <path
       d="m 3308.7791,1855.123 0.2032,0.4961 0.074,-0.014 c -0.068,-0.1651 -0.1374,-0.3323 -0.2066,-0.5 z"
       style="fill:#af714b"
       id="path321" />
    <path
       d="m 3312.4923,1859.084 -0.076,-0.1563 0.089,0.2344 z"
       style="fill:#170e09;stroke-width:0.927288"
       id="path317" />
    <path
       d="m 3312.4587,1858.9004 -0.042,0.027 0.076,0.1563 z"
       style="fill:#af714b"
       id="path316" />
    <path
       d="m 2940.0304,1925.3691 c -21.43,-14.85 -5.7408,-20.2691 -0.9908,-36.3691 -6.99,-2.85 -17.9588,-6.1007 -25.2988,-3.7207 -17.8,13.04 -15.6502,77.9 8.0998,87.75 6.78,-1.04 3.6587,0.2404 9.2687,-4.8496 1.82,-6.54 0.7699,-6.2591 -1.1101,-13.7891 -2.58,-10.33 5.9712,-18.9615 10.0312,-29.0215 z"
       style="fill:#cccccc;fill-opacity:1"
       id="path308" />
    <path
       d="m 2954.0603,1923.6602 c -5.17,-8.23 -6.0598,-22.7708 -5.8998,-32.3008 L 2939.0396,1889 c -4.75,16.1 -20.4392,21.5191 0.9908,36.3691 4.89,-1.18 9.0099,-1.2789 14.0299,-1.7089 z"
       style="fill:#af714b"
       id="path307" />
    <path
       d="m 3195.4904,1899.3496 c -1.24,-22.44 -2.761,-43.5687 -3.641,-66.1387 -8.64,-5.41 -25.2699,-11.0613 -35.9899,-9.1113 -13.6,2.49 -25.9392,17.9602 -34.7792,21.9902 -21.33,9.71 -41.0995,16.8405 -62.2695,27.7305 -36.75,-6 -49.4704,-5.5994 -84.9804,8.3906 -5.32,2.1 -20.8899,8.1285 -25.6699,9.1485 -0.16,9.53 0.7298,24.0708 5.8998,32.3008 35.57,-7.14 85.8794,-9.1699 121.4994,-6.5899 43.68,3.17 77.8507,-10.0207 119.9307,-17.7207 z"
       style="fill:#cccccc;fill-opacity:1"
       id="path306" />
    <path
       d="m 3234.5403,1892.1895 c -5.82,-15.23 -8.3011,-48.6687 -10.0211,-65.8887 -10.56,3.28 -21.5798,6.2201 -32.6698,6.9101 0.88,22.57 2.401,43.6987 3.641,66.1387 10.48,-3.05 27.7399,-5.3401 39.0499,-7.1601 z"
       style="fill:#af714b"
       id="path305" />
    <path
       d="m 3274.0302,1892.4805 c 1.73,-26.92 -6.0509,-44.3304 5.789,-66.5703 l 0.3107,-1.3809 c 1.7699,-1.2975 2.9577,-2.3559 3.7703,-3.2695 0.2708,-0.3046 0.5001,-0.5933 0.6952,-0.8692 0.3903,-0.5518 0.6452,-1.0522 0.8246,-1.5312 0.1795,-0.4791 0.2833,-0.9363 0.3745,-1.3985 0.1369,-0.6932 0.2441,-1.3984 0.5274,-2.2109 0.4723,-1.3543 1.435,-3.0062 3.8475,-5.3906 -25.9693,-1.0699 -43.3805,0.7916 -65.6502,16.4414 1.72,17.22 4.2011,50.6587 10.0211,65.8887 19.29,-3.49 25.1299,7.001 39.4899,0.291 z"
       style="fill:#cccccc;fill-opacity:1"
       id="path304" />
    <path
       d="m 3306.9704,1924.4805 -0.8776,1.868 -3.2924,12.3117 c 29.83,5.05 48.5891,9.1 78.8891,4.5 4.83,-4.31 11.8911,-10.1993 15.9511,-14.9493 -27.7399,-7.0952 1.0116,21.7161 -90.6702,-3.7304 z"
       style="fill:#754938"
       id="path303" />
    <path
       d="m 3312.6821,1859.623 -0.1764,-0.4609 0.023,0.127 c 0,0 0,0 0,0 0.051,0.1114 0.1024,0.2227 0.1529,0.332 z"
       style="fill:#2c1b12"
       id="path300" />
    <path
       d="m 3314.7259,1863.7031 -2.2336,-4.6191 0.013,0.078 0.1781,0.4649 c 0.7116,1.5439 1.3738,2.8906 2.0421,4.0761 z"
       style="fill:#170e09;stroke-width:0.927288"
       id="path299" />
    <path
       d="m 3314.7259,1863.7031 c -0.6683,-1.1855 -1.3305,-2.5322 -2.0421,-4.0761 v 0 c -0.05,-0.1093 -0.1021,-0.2206 -0.1529,-0.332 -0.1058,0.3271 -0.2065,0.6666 -0.3039,1.0195 z"
       style="fill:#170e09"
       id="path298" />
    <path
       d="m 3386.6169,1860.9063 c -0.1727,0.189 -0.3479,0.3783 -0.524,0.5703 -0.1569,0.1711 -0.315,0.3445 -0.4736,0.5175 l 0.05,-0.014 c 0.3198,-0.3562 0.636,-0.7142 0.9472,-1.0742 z"
       style="fill:#2c1b12"
       id="path295" />
    <path
       d="m 3400.5661,1835.709 c -2.6224,8.9109 -7.2849,17.481 -13.9358,25.1816 2.9718,-3.2547 5.4441,-6.0299 6.0275,-7.0742 4.5947,-7.5717 7.2722,-14.0387 7.9083,-18.1074 z"
       style="fill:#170e09"
       id="path293" />
    <path
       d="m 3400.5678,1835.7012 c 0.08,-0.5112 0.1245,-0.9833 0.1394,-1.416 -0.015,0.4353 -0.062,0.911 -0.1427,1.4257 0,0 0,0 0,0 5e-4,0 0,-0.01 0,-0.01 z"
       style="fill:#170e09"
       id="path292" />
    <path
       d="m 3348.1481,1756.9727 c -14.7081,15.9065 -14.3883,-0.8332 -31.9376,9.8164 -15.28,9.27 -21.6611,26.5803 -26.0411,43.0703 -7.72,7.63 -0.5995,7.7499 -10.0395,14.6699 l -0.3107,1.3809 c 1.1102,-0.077 2.2364,-0.2102 3.3504,-0.3379 2.9034,-0.3329 5.7364,-0.6357 8.0528,0.1406 0.8426,0.2823 1.6158,0.7079 2.3008,1.3262 0.1713,0.1545 0.3374,0.3204 0.4972,0.5 4.9444,5.5736 11.1851,14.0694 15.1987,21.7226 6.3993,-1.4043 22.5497,-5.3085 25.7993,-9.5801 0,0 0,0 0,0 l 1.048,-1.4082 v 0 c 0.4519,-0.5031 0.8664,-1.0067 1.2495,-1.5097 1.1482,-1.5085 2.0095,-3.0174 2.7106,-4.5235 2.8055,-6.0271 3.06,-12.024 9,-17.8965 l 2.6904,0.5997 c 5.55,12.37 4.6506,10.0103 17.8506,12.6503 5.72,0.79 11.1989,0.6794 15.2289,4.3594 0.1025,1.3025 7e-4,2.5314 -0.2636,3.711 -0.1321,0.5889 -0.306,1.1674 -0.5139,1.7343 -0.208,0.5669 -0.4522,1.1272 -0.7255,1.6778 -0.2735,0.5505 -0.5769,1.0966 -0.9052,1.6367 -0.3285,0.54 -0.6835,1.078 -1.0564,1.6133 -0.7465,1.0713 -1.5732,2.1417 -2.4352,3.2285 -2.9456,3.0842 -5.8803,6.3211 -8.8555,9.457 -1.9798,2.0868 -3.9629,4.1737 -6.0409,5.9766 -0.4863,0.4218 -0.9957,0.7699 -1.4897,1.1679 -0.8252,0.6651 -1.6423,1.3547 -2.4922,1.9415 -0.5298,0.3657 -1.0901,0.6321 -1.6307,0.9628 -0.8531,0.5219 -1.6947,1.0826 -2.578,1.5059 -0.3036,0.1455 -0.6161,0.2618 -0.9236,0.3945 -0.4141,0.1788 -0.8248,0.3691 -1.2462,0.5235 -0.297,0.1088 -0.6043,0.1851 -0.9052,0.2812 -0.4526,0.1447 -0.902,0.2995 -1.3637,0.4141 -0.2849,0.071 -0.5797,0.1092 -0.8682,0.168 -0.4861,0.099 -0.9695,0.2059 -1.4662,0.2695 -0.3124,0.04 -0.6354,0.043 -0.9522,0.068 -0.31,0.025 -0.6178,0.058 -0.9321,0.068 0.1828,0 0.3626,-0.021 0.5442,-0.029 0.4982,-0.023 0.9999,-0.033 1.4896,-0.09 0.3331,-0.039 0.6566,-0.1126 0.9858,-0.1661 0.4917,-0.08 0.9862,-0.1481 1.4695,-0.2597 0.331,-0.076 0.6537,-0.1847 0.9808,-0.2754 0.4667,-0.1293 0.9364,-0.2473 1.3956,-0.4043 0.3423,-0.1171 0.6761,-0.2648 1.0144,-0.3965 0.4287,-0.1668 0.8606,-0.3225 1.2831,-0.5117 0.7902,-0.354 1.5431,-0.836 2.3125,-1.2617 0.7241,-0.4007 1.4663,-0.7404 2.1732,-1.1973 0.8354,-0.5401 1.637,-1.183 2.4503,-1.791 0.5934,-0.4436 1.2043,-0.8361 1.7869,-1.3106 2.1996,-1.7916 4.2794,-3.8718 6.3499,-5.9492 3.1566,-3.167 6.2329,-6.4379 9.2116,-9.5566 3.1076,-6.7357 6.4615,-10.1566 9.2519,-11.875 0.398,-0.245 0.7861,-0.4564 1.1588,-0.6367 0.3726,-0.1803 0.7339,-0.3321 1.0765,-0.4571 2.4022,-0.8759 4.0105,-0.5097 4.0105,-0.5097 0.4567,-0.2673 0.8799,-0.4735 1.2679,-0.625 2.7201,-1.0611 3.76,0.6555 3.1993,4.2539 6.0523,-20.5781 1.2241,-42.97 -15.1198,-60.6485 -8.07,-8.72 -9.0792,-9.5517 -20.7392,-9.5117 -7.65,-6.89 -7.2707,-8.1183 -16.5607,-8.5683 z"
       style="fill:#f9e0ab;fill-opacity:1"
       id="path291" />
  </g>
</svg>
