<?xml version="1.0" encoding="UTF-8" standalone="no"?>
<svg
   version="1.1"
   style="display:block"
   viewBox="0 0 743.76578 577.08789"
   width="864.98145"
   height="577.08789"
   preserveAspectRatio="none"
   id="svg213"
   xmlns="http://www.w3.org/2000/svg"
   xmlns:svg="http://www.w3.org/2000/svg">
  <defs
     id="defs2">
    <linearGradient
       id="Gradient1"
       gradientUnits="userSpaceOnUse"
       x1="1212.26"
       y1="1519.13"
       x2="1097.65"
       y2="1453.72">
      <stop
         class="stop0"
         offset="0"
         stop-opacity="1"
         stop-color="rgb(0,0,0)"
         id="stop1" />
      <stop
         class="stop1"
         offset="1"
         stop-opacity="1"
         stop-color="rgb(58,35,26)"
         id="stop2" />
    </linearGradient>
  </defs>
  <g
     id="g277"
     transform="translate(-1828.7786,-2697.5699)">
    <path
       fill="rgb(2,2,3)"
       d="m 2516.92,2956.18 c 24.02,-18.43 34.85,-16.44 53.28,7.68 2.46,16.37 4.83,24.57 -3.16,40.1 -7.88,10.09 -13.68,10.7 -25.34,17.1 -14.31,9.43 -24.98,-4.24 -30.27,8.06 l 2.12,6.57 4.39,9.22 c -10.08,9.47 -28.71,25.54 -34.81,36.99 -12.92,6.37 -30.74,13.39 -42.02,21.92 -23.12,17.47 -95.75,79.27 -123.83,77.97 l -4.07,-3.54 c -2.01,-6.77 -11.42,-26.73 -14.74,-34.2 6.89,-4.65 9.42,-6.29 15.35,-11.93 -4.69,-0.07 -11.03,4.17 -15.72,6.66 -6.37,-10.68 -12.68,-21.47 -19.49,-31.87 l -0.62,-5.05 c 7.82,-14.36 49.61,-49.05 64.32,-56.13 34.08,-16.4 61.83,-34.66 93.67,-55.05 20.46,-6.21 27.99,-10.1 46.3,-21.39 1.63,5.12 2.79,9.04 5.03,13.98 3.02,2.74 1.91,1.96 5.86,3.79 11.46,-7.88 10.22,-19.92 23.75,-30.88 z"
       id="path25"
       style="fill:#cccccc;fill-opacity:1" />
    <path
       fill="#bf8056"
       d="m 2516.92,2956.18 c 24.02,-18.43 34.85,-16.44 53.28,7.68 2.46,16.37 4.83,24.57 -3.16,40.1 -7.88,10.09 -13.68,10.7 -25.34,17.1 -14.31,9.43 -24.98,-4.24 -30.27,8.06 l 2.12,6.57 c -35.14,25.08 -61.92,-25.73 -26.24,-52.42 3.02,2.74 1.91,1.96 5.86,3.79 11.46,-7.88 10.22,-19.92 23.75,-30.88 z"
       id="path26" />
    <path
       fill="rgb(2,2,3)"
       d="m 2516.92,2956.18 c 24.02,-18.43 34.85,-16.44 53.28,7.68 2.46,16.37 4.83,24.57 -3.16,40.1 -5.51,1.58 -7.4,2.6 -13.07,1.48 -0.44,-9.34 -7.23,-34.36 -16.02,-39.35 -6.77,-3.83 -12.84,-1.84 -19.93,-0.08 l -2.44,0.62 -1.52,-1.74 z"
       id="path27"
       style="fill:#cccccc;fill-opacity:1" />
    <path
       fill="#191818"
       d="m 2541.7,3021.06 c -0.92,-1.99 -1.06,-3.33 -1.57,-5.48 3.13,-7.01 6.38,-8.81 13.84,-10.14 5.67,1.12 7.56,0.1 13.07,-1.48 -7.88,10.09 -13.68,10.7 -25.34,17.1 z"
       id="path28" />
    <path
       fill="rgb(2,2,3)"
       d="m 2008.75,2738.5 c -0.37,0.23 74.47,-23.64 76.76,-23.68 17.1,-0.35 28.33,11.93 56.7,5.94 1.13,6.59 1.94,12.24 3.86,18.66 2.37,15.39 10.42,35.63 9.52,45.35 -4.6,2.71 -4.13,1.97 -9.95,2.45 -45.19,8.9 -84.44,19.03 -130.83,19.77 l -2.6,-17.64 c -2.48,-14.52 -3.76,-27.45 -5.2,-42.04 z"
       id="path86"
       style="fill:#cccccc;fill-opacity:1" />
    <path
       id="path95"
       d="m 2278.6108,3106.9102 c -16.35,21.57 -51.17,44.2103 -73.09,63.0703 -15.91,13.69 -36.8809,33.2299 -52.7909,45.4199 0.74,7.59 -0.5603,6.8303 3.4797,11.5703 5.6,0.66 6.5211,0.4199 11.9911,-0.08 5.05,3.56 3.25,1.3196 5.71,6.8496 5.53,0.02 19.2297,-3.6494 24.9797,-5.1894 20.62,-5.5 43.4699,-13.0909 62.3099,-23.1309 17.74,-9.45 32.7199,-20.7199 52.0099,-27.1699 -2.01,-6.77 -11.4202,-26.7292 -14.7402,-34.1992 6.89,-4.65 9.4199,-6.2917 15.3499,-11.9317 -4.69,-0.07 -11.0294,4.1702 -15.7194,6.6602 -6.37,-10.68 -12.6797,-21.4691 -19.4897,-31.8691 z"
       style="fill:#bf8056;fill-opacity:1" />
    <path
       fill="#bf8056"
       d="m 2142.21,2720.76 c 1.83,-25.66 36.93,-25.22 55.16,-19.12 16.24,-4.98 36.74,-2.63 46.65,12.73 3.21,15.92 1.14,21.09 -3.56,36.15 -13.58,12.4 -28.12,26.71 -46.27,31.06 l -6.7,2.23 -3.52,1.57 c -2.06,10.97 4.15,30.84 11.72,39.17 8.81,-1.71 28.47,2.59 32.44,11.98 l -1.96,2.71 c -8.17,2.83 -19.04,2.57 -26.88,1.64 -32.62,-3.84 -26.1,-29.82 -40.07,-49.98 -2.97,-4.29 -7.97,-3.37 -13.58,-3.68 5.82,-0.48 5.35,0.26 9.95,-2.45 0.9,-9.72 -7.15,-29.96 -9.52,-45.35 -1.92,-6.42 -2.73,-12.07 -3.86,-18.66 z"
       id="path97" />
    <path
       fill="#c58e5f"
       d="m 2146.07,2739.42 c 13.19,5.9 14.56,80.28 41.35,91.65 -3.27,-2 -2.03,-0.96 -3.96,-3.03 6.28,2.49 8.19,2.71 14.97,3.1 l 1.1,-2.84 0.35,2.91 2.25,-0.98 -2.36,-1.93 c -3,-2.48 -1.87,-1.4 -4.08,-3.75 8.81,-1.71 28.47,2.59 32.44,11.98 l -1.96,2.71 c -8.17,2.83 -19.04,2.57 -26.88,1.64 -32.62,-3.84 -26.1,-29.82 -40.07,-49.98 -2.97,-4.29 -7.97,-3.37 -13.58,-3.68 5.82,-0.48 5.35,0.26 9.95,-2.45 0.9,-9.72 -7.15,-29.96 -9.52,-45.35 z"
       id="path98" />
    <path
       id="path99"
       d="m 2210.1173,2699.3672 c -4.3604,0.24 -8.6868,1.0284 -12.7468,2.2734 l 3.1389,1.1992 c 14.06,5.26 46.3406,8.2707 35.8606,34.1407 -4.24,10.45 -13.5898,15.4892 -24.1198,18.4492 -13.07,-3.75 -22.4301,-5.0194 -36.0101,-6.6094 1.09,7.81 3.1303,28.7599 7.0703,34.0899 l 4.1801,0.9003 6.6992,-2.2304 c 18.15,-4.35 32.6897,-18.6606 46.2697,-31.0606 4.7,-15.06 6.7704,-20.2304 3.5604,-36.1504 -7.4325,-11.52 -20.8211,-15.7219 -33.9025,-15.0019 z"
       style="fill:#cccccc;fill-opacity:1" />
    <path
       d="m 2007.0099,2747.3105 c -6.1,1.58 -12.1803,3.2295 -18.2503,4.9395 -21.61,-5.5 -33.2103,-8.8096 -56.0103,-4.0996 -21.08,4.36 -44.0298,14.93 -65.3798,14 -14.79,9.3 -13.2801,18.7999 -1.1101,29.6699 11.72,-1.27 44.0605,-1.6111 56.4705,-1.8711 25.31,-0.53 65.0495,-3.1996 89.4795,-0.5996 -2.48,-14.52 -3.7595,-27.4491 -5.1995,-42.0391 z"
       style="fill:#bf8056"
       id="path54" />
    <path
       fill="#bf8056"
       d="m 2483.13,3081.9 c 6.1,-11.45 24.73,-27.52 34.81,-36.99 16,42.8 5.42,104.25 8.35,149.67 1.21,18.72 0.65,39.37 0.49,58.25 10.98,3.28 35.26,7.64 40.91,15.07 -4.42,11.59 -52.61,7.87 -55.12,-8.08 -4.58,-29.12 -10.64,-58.08 -14.78,-87.26 -2.67,-17.88 -2.75,-81.47 -14.66,-90.66 z"
       id="path119" />
    <path
       fill="#bf8056"
       d="m 2435.98,2990.68 c 8.48,-25.91 5.75,-33.33 1.81,-59.99 -5.76,-41.02 -12.39,-81.43 -18.52,-122.45 -1.95,-13.02 -24.28,-59.55 0.41,-61.93 10.15,-0.98 8.79,19.99 14.74,26.53 3.1,-4.04 1.53,-3.15 5.7,-5.03 2.88,9.9 -7.48,27.34 -3.05,42.35 15.57,52.68 28.62,106.83 45.21,159.13 -18.31,11.29 -25.84,15.18 -46.3,21.39 z"
       id="path122" />
    <path
       fill="rgb(2,2,3)"
       d="m 2255,2713.58 c 6.96,-5.6 9.69,-4.21 15.7,-8.36 51.8,-35.78 76.8,64.77 43.14,79.05 -7.12,-1.84 -4.61,-0.8 -10.3,-6.27 -7.47,-0.44 -15.08,2.08 -21.88,4.8 -18.79,-6.06 -27.2,-6.32 -28.35,-28.38 -5.57,-4.14 -4.92,-2.87 -12.85,-3.9 4.7,-15.06 6.77,-20.23 3.56,-36.15 z"
       id="path134"
       style="fill:#cccccc;fill-opacity:1" />
    <path
       fill="#c58e5f"
       d="m 2244.02,2714.37 10.98,-0.79 c 8.68,16.16 8.78,22.01 28.75,17.74 4.45,1.73 4.16,2.25 6.96,6.32 -1.82,4.94 -3.25,4.24 -9.29,7.62 9.71,7.16 29.57,18.49 22.12,32.74 -7.47,-0.44 -15.08,2.08 -21.88,4.8 -18.79,-6.06 -27.2,-6.32 -28.35,-28.38 -5.57,-4.14 -4.92,-2.87 -12.85,-3.9 4.7,-15.06 6.77,-20.23 3.56,-36.15 z"
       id="path135" />
    <path
       fill="rgb(2,2,3)"
       d="m 1866.26,2791.82 c -7.24,17.48 -15.26,21.74 -11.77,42.32 0.67,3.95 -3.35,6.41 -6.29,8.64 -23.92,1.32 -22.74,-77.51 -12.5,-86.88 8.13,-2.26 17.77,-1.1 26.44,-0.71 l 5.23,6.96 c -14.79,9.3 -13.28,18.8 -1.11,29.67 z"
       id="path194"
       style="fill:#cccccc;fill-opacity:1" />
    <path
       fill="rgb(2,2,3)"
       d="m 2152.73,3215.4 c 0.74,7.59 -0.56,6.83 3.48,11.57 5.6,0.66 6.52,0.42 11.99,-0.08 5.05,3.56 3.25,1.32 5.71,6.85 -1.25,10.56 5.12,14.95 3.79,25.91 -2.12,17.56 -21.82,12.57 -34.93,9.21 -37.01,-9.46 -12.57,-45.34 9.96,-53.46 z"
       id="path196"
       style="fill:#cccccc;fill-opacity:1" />
  </g>
</svg>
