<?xml version="1.0" encoding="UTF-8" standalone="no"?>
<svg
   version="1.1"
   style="display:block"
   viewBox="0 0 660.93619 568.04388"
   width="768.65265"
   height="568.04388"
   preserveAspectRatio="none"
   id="svg213"
   xmlns="http://www.w3.org/2000/svg"
   xmlns:svg="http://www.w3.org/2000/svg">
  <defs
     id="defs2">
    <linearGradient
       id="Gradient1"
       gradientUnits="userSpaceOnUse"
       x1="1212.26"
       y1="1519.13"
       x2="1097.65"
       y2="1453.72">
      <stop
         class="stop0"
         offset="0"
         stop-opacity="1"
         stop-color="rgb(0,0,0)"
         id="stop1" />
      <stop
         class="stop1"
         offset="1"
         stop-opacity="1"
         stop-color="rgb(58,35,26)"
         id="stop2" />
    </linearGradient>
  </defs>
  <g
     id="g269"
     transform="translate(-1881.91,-149.10861)">
    <path
       fill="#c58e5f"
       d="m 2291.81,181.216 c 10.8,-5.742 16.13,-25.27 27.38,-29.856 32.46,-13.227 64.58,35.051 50.86,60.836 -4.24,2.594 -4.85,2.753 -10.38,1.154 -7.93,6.372 -14.06,14.822 -19.24,23.525 l -26.33,6.871 c -2.44,-5.263 -5.88,-15.096 -9.81,-17.886 -5.66,1.823 -10.88,3.715 -13.09,9.982 -12.51,35.586 -17.83,78.093 -22.06,115.508 -2.08,18.454 -11.56,37.891 -8.1,56.224 4.67,5.645 33.74,13.813 44.54,19.998 -74.06,3.949 -66.84,0.857 -66.55,-75.973 0.1,-25.885 5.82,-50.164 5.06,-76.477 0.21,-12.272 2.79,-39.307 4.88,-51.615 2,-11.8 8.07,-16.889 17.81,-22.57 10.86,-0.511 9.83,-0.42 12.21,-10.037 l 1.37,0.239 c 9.59,-1.683 9.26,-1.286 11.45,-9.923 z"
       id="path80" />
    <path
       fill="rgb(2,2,3)"
       d="m 2291.81,181.216 c 10.8,-5.742 16.13,-25.27 27.38,-29.856 32.46,-13.227 64.58,35.051 50.86,60.836 -4.24,2.594 -4.85,2.753 -10.38,1.154 -17.7,-21.093 -20.78,-3.679 -32.18,-11.094 1,-5.446 2.06,-8.309 0.47,-13.618 -7.28,-2.213 -10.42,8.919 -18.57,11.638 -11.36,3.787 -16.76,-10.162 -17.58,-19.06 z"
       id="path81"
       style="fill:#cccccc;fill-opacity:1" />
    <path
       d="m 2424.1863,650.38281 c 0.2807,-0.36354 0.4112,-0.50998 0.4468,-0.53515 -0.031,0.0179 -0.1618,0.16118 -0.4535,0.53906 0,-10e-4 0,-0.002 0.01,-0.004 z"
       style="fill:#cccccc"
       id="path46" />
    <path
       d="m 2045.425,668.40234 c 0.045,-1.60035 0.097,-3.19299 0.1998,-4.78906 -0.1051,1.6226 -0.1552,3.16212 -0.1998,4.78906 z"
       style="fill:#cccccc"
       id="path43" />
    <path
       d="m 2046.4427,690.33789 c -0.2329,-1.79565 -0.4438,-3.65465 -0.6113,-5.63086 0.1688,1.99965 0.3756,3.81566 0.6113,5.63086 z"
       style="fill:#cccccc"
       id="path37" />
    <path
       d="m 2048.1994,700.20117 c -0.5276,-1.98271 -1.0022,-4.44387 -1.4208,-7.14453 0.4191,2.70565 0.8924,5.15883 1.4208,7.14453 z"
       style="fill:#cccccc"
       id="path32" />
    <path
       d="m 2394.867,648.72266 c -1.4679,-7.14861 -2.8584,-15.79601 -3.3571,-21.4336 0.8438,9.53852 2.0485,16.22932 3.3571,21.4336 z"
       style="fill:#cccccc"
       id="path21" />
    <path
       d="m 2370.1006,661.25391 c -0.06,-7.969 -12.531,-52.40605 -15.281,-64.99805 l -3.3102,-2.07227 c -28.24,6.725 -42.1099,-16.26145 -71.7599,3.81055 -12.07,8.178 -43.5291,15.62453 -54.0891,23.39453 0.37,17.24 1.9304,30.49814 3.7804,47.61914 l 0.3493,9.6836 c 17.42,6.394 110.8405,-13.9435 140.3105,-17.4375 z"
       style="fill:#cccccc"
       id="path22" />
    <path
       d="m 2229.4408,669.00781 c -1.85,-17.121 -3.4104,-30.37914 -3.7804,-47.61914 -6.3799,3.17793 -12.8303,6.23689 -19.3302,9.17383 -21.33,-4.232 -28.7595,-6.28158 -50.4195,-6.01758 -17.56,0.213 -60.5804,17.13697 -71.3804,12.16797 -14.0896,10.32889 -12.2709,20.08521 -2.101,33.70508 18.0908,-9.3206 118.5905,1.35455 147.0115,-1.41016 z"
       style="fill:#c58e5f"
       id="path23" />
    <path
       d="m 2045.8314,684.70703 c -0.4291,-5.08327 -0.5609,-10.67567 -0.4064,-16.30469 -0.1581,5.66849 -0.027,11.18955 0.4064,16.30469 z"
       style="fill:#cccccc"
       id="path40" />
    <path
       d="m 2082.4293,670.41797 c -10.1699,-13.61987 -11.9886,-23.37619 2.101,-33.70508 -5.3738,-4.3515 -10.0651,-6.97518 -14.1491,-8.18945 -3.063,-0.91066 -5.7843,-1.02892 -8.1956,-0.49024 -0.4019,0.0898 -0.7958,0.19856 -1.1806,0.32422 -2.6937,0.87963 -4.9715,2.62309 -6.8857,5.01563 -5.2945,6.61792 -7.7166,18.23004 -8.4945,30.24023 -0.1031,1.59607 -0.1552,3.18871 -0.1998,4.78906 -0.1545,5.62902 -0.023,11.22142 0.4064,16.30469 0.1675,1.97621 0.3784,3.83521 0.6113,5.63086 0.1163,0.89548 0.2057,1.87842 0.3359,2.71875 0.4186,2.70066 0.8932,5.16182 1.4208,7.14453 1.95,7.336 5.7503,11.93655 11.8903,16.18555 6.85,1.077 3.5102,1.32787 10.3502,-1.32813 7.1,-8.783 -0.2499,-13.55778 -0.4299,-24.30078 1.345,-3.27441 3.3444,-5.9211 5.5606,-8.96875 2.216,-3.04746 4.6487,-6.49559 6.8587,-11.37109 z"
       style="fill:#cccccc"
       id="path24" />
    <path
       d="m 2398.3048,659.69727 c -0.1996,0.0193 -0.4032,0.0384 -0.6113,0.0586 -0.8114,-2.07472 -1.8368,-6.21354 -2.8265,-11.0332 -1.3086,-5.20428 -2.5133,-11.89508 -3.3571,-21.4336 16.35,0.119 32.3897,4.27983 45.8397,3.17383 11.33,-7.025 12.4603,-9.23486 17.5903,-21.63086 -6.88,-35.66 -38.2502,-23.991 -67.4002,-26.375 l -2.3193,-0.20898 c -6.29,1.875 -28.411,8.64754 -33.711,11.93554 l 3.3102,2.07227 c 2.75,12.592 15.221,57.02905 15.281,64.99805 9.68,13.877 15.4394,33.18523 26.9094,49.74023 11.58,3.744 41.4407,8.08827 50.7907,0.69727 -3.46,-7.64 -29.9112,-14.63893 -40.7612,-19.66993 -2.86,-4.251 -7.1695,-24.86771 -8.2695,-31.01171 -0.1532,-0.4347 -0.3082,-0.87088 -0.4652,-1.3125 z"
       style="fill:#c58e5f"
       id="path17" />
    <path
       d="m 2398.3048,659.69727 c -1.115,-3.13607 -2.3148,-6.50845 -3.4378,-10.97461 0.9897,4.81966 2.0151,8.95848 2.8265,11.0332 0.2081,-0.0201 0.4117,-0.0393 0.6113,-0.0586 z"
       style="fill:#cccccc"
       id="path20" />
    <path
       d="m 2421.4405,574.36133 c -13.2335,0.80316 -26.9412,4.73661 -36.2201,7.88672 l 2.3193,0.20898 c 29.15,2.384 60.5202,-9.285 67.4002,26.375 -5.13,12.396 -6.2603,14.60586 -17.5903,21.63086 -13.45,1.106 -29.4897,-3.05483 -45.8397,-3.17383 0.4987,5.63759 1.8892,14.28499 3.3571,21.4336 1.123,4.46616 2.3228,7.83854 3.4378,10.97461 8.3195,-0.80463 9.3321,-0.88975 12.6746,-1.32422 l 5.5404,-2.53711 5.5404,-2.53516 c 0,0 0,-0.002 0,-0.002 11.9466,-6.37298 18.0555,-12.32264 28.404,-21.15039 11.22,-17.197 10.7005,-23.82927 8.4005,-43.32227 l -4.0491,-3.56055 c -7.379,-9.37677 -20.1368,-11.70586 -33.3701,-10.90429 0,1e-4 0,-10e-5 0,0 z"
       style="fill:#cccccc"
       id="path16" />
    <path
       d="m 2424.487,650.07031 c 0.081,-0.10448 0.1391,-0.1957 0.1461,-0.21679 0,0 0,-0.002 0,-0.002 0,0 0,-0.002 0,-0.002 -0.036,0.0256 -0.1666,0.17035 -0.4468,0.5332 0.1029,-0.0746 0.2146,-0.20105 0.3007,-0.3125 z"
       style="fill:#191818"
       id="path44" />
    <path
       fill="#c58e5f"
       d="m 2060.77,291.585 c 2.48,12.795 7.11,32.314 12.12,44.292 l -15.81,5.636 c -17.52,7.163 -110.04,25.39 -122,39.422 -7.09,0.758 -12.68,-2.541 -16.58,-8.946 -4.15,-6.808 -1.59,-10.652 0.98,-17.333 10.05,0.599 52.16,-30.626 65.59,-36.43 12.19,-5.269 13.36,-6.724 28.19,-10.317 23.46,-1.964 30.64,-0.351 47.51,-16.324 z"
       id="path132" />
    <path
       fill="#bf8056"
       d="m 2060.77,291.585 c 2.48,12.795 7.11,32.314 12.12,44.292 l -15.81,5.636 c 2.79,-9.555 4.79,-23.862 -2.92,-31.969 -12.63,-5.599 -26.18,8.658 -40.9,-1.635 23.46,-1.964 30.64,-0.351 47.51,-16.324 z"
       id="path133" />
    <path
       d="m 2508.7334,564.54883 c -1.003,-1.8e-4 -2.0213,0.0809 -3.0532,0.24804 -23.04,3.73501 -14.9201,7.45127 -29.2101,17.69727 l -5.3104,-1.17773 c -3.72,2.45 -2.0499,0.91147 -3.4999,7.10546 1.96,7.726 1.96,8.0701 7.02,13.9961 12.94,5.56 12.8903,-4.81438 24.6203,-3.35938 l 2.7795,2.12891 c -0.58,10.624 -9.9099,9.71158 -5.9099,15.64258 15.49,5.923 18.291,1.76408 27.131,16.08008 l 0.3796,5.05664 c 1.91,4.469 0.8889,2.83195 4.9089,6.12695 27.9969,-1.60328 11.2391,-79.53937 -19.8558,-79.54492 z"
       style="fill:#cccccc"
       id="path14" />
    <path
       d="m 2523.6803,637.9668 -0.3796,-5.05664 c -8.84,-14.316 -11.641,-10.15708 -27.131,-16.08008 -4,-5.931 5.3299,-5.01858 5.9099,-15.64258 l -2.7795,-2.12891 c -11.73,-1.455 -11.6803,8.91938 -24.6203,3.35938 -5.06,-5.926 -5.06,-6.2701 -7.02,-13.9961 -4.99,1.702 -3.0101,1.2023 -8.7901,0.4043 2.3,19.493 2.8196,26.12527 -8.4004,43.32227 5.88,-3.253 6.7006,-4.20224 13.4706,-3.49024 8.25,6.232 7.2902,12.24152 8.3702,22.10352 l 26.8792,1.16406 c 8.03,-4.615 16.381,-9.56598 24.491,-13.95898 z"
       style="fill:#c58e5f"
       id="path15" />
    <path
       id="path62"
       style="display:block;fill:#cccccc;fill-opacity:1"
       d="m 2262.742,186.25391 c -24.1934,-1.34123 -50.687,18.56532 -68.6514,33.43164 -22.24,18.399 -31.9806,14.78843 -60.2106,17.64843 -1.35,0.137 -71.9102,52.22396 -73.1102,54.25196 2.48,12.795 7.1104,32.31301 12.1204,44.29101 1.31,5.837 2.1901,10.14721 6.3801,13.65821 23.29,-5.851 50.7798,-23.43593 72.6098,-33.04493 28.59,-12.578 61.6407,-29.75826 90.0807,-40.57226 l 2.1295,-0.79688 c 0.21,-12.272 2.7904,-39.30528 4.8804,-51.61328 2,-11.8 8.0686,-16.88931 17.8086,-22.57031 23.72,9.391 17.9113,27.00444 25.8513,30.64844 -1.51,-16.4 -1.8998,-27.22027 -12.2698,-40.44727 l -1.3704,-0.23828 c -5.205,-2.89575 -10.6653,-4.33697 -16.2484,-4.64648 z" />
    <path
       fill="rgb(2,2,3)"
       d="m 1881.91,375.106 c 12.15,-12.964 19.31,-18.62 37.57,-20.45 -2.57,6.681 -5.13,10.525 -0.98,17.333 3.9,6.405 9.49,9.704 16.58,8.946 -1.26,7.854 -2.13,15.403 -3.05,23.289 7.13,7.514 19.83,16.59 10.65,26.911 -24.79,6.107 -53.27,-36.453 -60.77,-56.029 z"
       id="path188"
       style="fill:#cccccc;fill-opacity:1" />
  </g>
</svg>
