<?xml version="1.0" encoding="UTF-8" standalone="no"?>
<svg
   version="1.1"
   style="display:block"
   viewBox="0 0 505.64144 217.88232"
   width="588.04865"
   height="217.88232"
   preserveAspectRatio="none"
   id="svg213"
   xmlns="http://www.w3.org/2000/svg"
   xmlns:svg="http://www.w3.org/2000/svg">
  <defs
     id="defs2">
    <linearGradient
       id="Gradient1"
       gradientUnits="userSpaceOnUse"
       x1="1212.26"
       y1="1519.13"
       x2="1097.65"
       y2="1453.72">
      <stop
         class="stop0"
         offset="0"
         stop-opacity="1"
         stop-color="rgb(0,0,0)"
         id="stop1" />
      <stop
         class="stop1"
         offset="1"
         stop-opacity="1"
         stop-color="rgb(58,35,26)"
         id="stop2" />
    </linearGradient>
  </defs>
  <g
     id="g278"
     transform="translate(-2905.3691,-3054.3749)">
    <path
       d="m 3221.1503,3126.5 c -1.1977,-0.3368 -2.2722,-0.7275 -3.2648,-1.1504 -2.9777,-1.2687 -5.2166,-2.8297 -7.8244,-4.1133 -2.2276,-1.0964 -4.7247,-1.9903 -8.1805,-2.3261 -1.39,3.26 -0.5305,1.8189 -2.4805,4.3789 -16.04,-2.41 -23.2406,-11.3289 -45.0706,-13.7989 l -21.0398,0.049 -9.1494,2.0214 c -1.76,6.15 -2.3701,18.069 -2.8601,25.129 -1.39,20.12 -7.2694,48.1999 -19.0194,64.9199 62.38,35.94 71.2984,29.7805 141.7884,35.5605 39.3714,3.2385 66.5253,23.0612 114.6927,12.9043 1.6276,-11.0592 1.8539,-13.5051 1.5114,-16.9453 l -0.178,-0.018 v -0.4004 c -13.6063,-15.0565 -78.279,-24.005 -93.6058,-28.8808 -16.58,-5.28 -65.3395,-21.19 -73.8895,-26.5 l 0.9102,-1.2793 c 36.83,8.56 69.0991,12.8395 103.8991,28.5195 15.1,6.81 46.4504,14.0894 62.8304,14.3594 4.02,-4.55 5.1307,-12.3088 6.6707,-18.4688 -23.05,-23.58 -75.7707,-37.9204 -105.4307,-49.2304 -7.89,-3.01 -31.9894,-19.3205 -40.3094,-24.7305 z"
       style="fill:#cccccc"
       id="path126" />
    <path
       d="m 3066.5999,3189.3809 c 10.66,-8.6 19.8703,-68.9105 22.6403,-84.9805 -4.72,-3.79 -12.2897,-6.7713 -17.9597,-9.3613 -31.92,-15.96 -41.9105,-3.3986 -71.1705,-18.0586 l -5.5404,9.7597 c 13.91,8.45 27.8007,15.529 31.0407,32.959 5.56,29.9 -22.4704,35.8916 -43.2904,22.1016 l -0.22,13.6797 c 15.57,5.94 23.4004,8.649 36.7004,19.289 4.68,3.7 9.529,7.7002 14.349,11.1602 11.15,0.76 22.5806,1.1112 33.4506,3.4512 z"
       style="fill:#cccccc"
       id="path161" />
    <path
       d="m 2982.3199,3141.8008 c 20.82,13.79 48.8504,7.7984 43.2904,-22.1016 -3.24,-17.43 -17.1307,-24.509 -31.0407,-32.959 -3.67,5.32 -3.9398,6.4105 -10.0698,8.7305 -15.12,-1.2 -16.9,-18.1699 -31.38,-23.9199 l 0.2805,4.3086 c -10.89,5.55 -21.6904,1.0006 -31.6604,16.1406 -12.67,19.24 19.6401,38.7704 19.3301,41.6504 l -3.5705,1.2402 c 20.18,1.72 37.4204,-16.8298 44.8204,6.9102 z"
       style="fill:#f4d0bf"
       id="path167" />
    <path
       d="m 2937.4995,3134.8906 3.5705,-1.2402 c 0.31,-2.88 -32.0001,-22.4104 -19.3301,-41.6504 9.97,-15.14 20.7704,-10.5906 31.6604,-16.1406 l -0.2805,-4.3086 c -9.28,-3.26 -20.7501,-7.8406 -29.4301,-2.3906 -32.67,20.51 -17.6602,55.9704 13.8098,65.7304 z"
       style="fill:#976748"
       id="path170" />
    <path
       d="m 3034.476,3054.4629 c -8.4134,0.4097 -17.0209,2.2851 -26.0461,6.2676 -3.06,5.25 -5.6499,10.79 -8.3199,16.25 29.26,14.66 39.2505,2.0986 71.1705,18.0586 17.02,-3.02 29.1395,5.8314 46.6795,7.6914 10.43,-0.76 25.9895,3.9397 36.3695,6.7597 21.83,2.47 29.0306,11.3889 45.0706,13.7989 1.95,-2.56 1.0905,-1.1189 2.4805,-4.3789 8.85,0.86 11.4097,5.3798 19.2697,7.5898 -3.03,-24.27 -99.6398,-49.8202 -122.2098,-57.1602 -19.7625,-6.4312 -37.6426,-13.7186 -56.1077,-14.8222 -2.7698,-0.1656 -5.5523,-0.1913 -8.3568,-0.055 z"
       style="fill:#f4d0bf"
       id="path125" />
    <path
       d="m 3102.2608,3201.6094 c 11.75,-16.72 17.6294,-44.7999 19.0194,-64.9199 0.49,-7.06 1.1001,-18.979 2.8601,-25.129 l 0.136,-0.1582 c -7.733,0.3494 -6.5959,0.802 -11.5259,1.127 -4.9295,0.325 -23.5068,-8.1274 -23.5102,-8.1289 -2.77,16.07 -11.9803,76.3805 -22.6403,84.9805 11.93,1.5 25.1209,6.4785 35.6609,12.2285 z"
       style="fill:#f4d0bf"
       id="path158" />
    <path
       d="m 3360.3054,3233.1328 h -0.052 c 0.3425,3.4402 0.1162,5.8861 -1.5114,16.9453 0.023,0 0.046,-0.01 0.069,-0.014 0.4877,-3.3107 2.2951,-14.4143 1.4947,-16.9277 z"
       style="fill:#f6f2ea"
       id="path131" />
    <path
       d="m 3360.2349,3232.9492 c 0.024,0.052 0.047,0.1109 0.067,0.1738 0,0 0,0.01 0,0.01 0.8004,2.5134 -1.007,13.617 -1.4947,16.9277 -0.023,0 -0.046,0.01 -0.069,0.014 -0.011,0.072 -0.021,0.1443 -0.032,0.2168 3.1427,0.4928 6.6683,1.7243 9.6634,2.3906 -0.4187,-0.588 -0.7819,-1.1639 -1.0832,-1.7207 0.6616,-6.3434 0.5085,-11.0403 3.6309,-16.3828 l -10.7164,-1.9121 c 0.01,0.095 0.021,0.1898 0.03,0.2832 z"
       style="fill:#f6f2ea"
       id="path128" />
    <path
       id="path137"
       style="display:block;fill:#cccccc"
       d="m 3375.5596,3202.4727 c -2.7221,6.8899 -3.7494,11.9149 -2.2303,19.8613 -0.026,-0.01 -0.052,-0.018 -0.077,-0.027 2.6104,3.6779 5.6756,5.8718 9.5979,8.9688 l -2.3444,0.6836 c -3.1057,0.6891 -6.2016,1.4071 -9.2973,2.166 -0.01,0.024 -0.01,0.041 -0.01,0.047 h -0.028 c -0.082,0.1346 -0.1637,0.2685 -0.2419,0.4023 h -0.01 c -3.1224,5.3425 -2.9693,10.0394 -3.6309,16.3828 0.3013,0.5568 0.6645,1.1327 1.0832,1.7207 0.2262,0.05 0.4504,0.097 0.6701,0.1407 0,7e-4 10e-5,0 0,0 -0.2197,-0.043 -0.4439,-0.09 -0.6701,-0.1406 5.516,7.7451 20.6406,17.5887 30.0465,13.3691 9.14,-11.4 12.3007,-45.3614 12.5907,-60.1914 -5.3577,-4.538 -27.7715,-3.3697 -35.4509,-3.3886 z" />
    <path
       d="m 3018.8003,3174.7695 c -13.3,-10.64 -21.1304,-13.349 -36.7004,-19.289 -0.65,24.06 -4.3693,46.4001 -9.1293,69.9101 -3.34,16.57 -9.291,48.6491 17.869,46.7891 5.37,-0.41 10.28,-3.1901 13.39,-7.5801 4.03,-5.8 3.6108,-11.0495 2.7308,-17.5195 -2.89,-4.71 -4.0708,-5.1095 -8.4408,-8.4395 0.46,-14.71 7.4807,-55.6711 20.2807,-63.8711 z"
       style="fill:#f4d0bf"
       id="path162" />
    <path
       d="m 3360.2349,3232.9492 c 0.01,0.06 0.013,0.1206 0.018,0.1797 h 0.052 c -0.021,-0.067 -0.045,-0.1289 -0.071,-0.1836 z"
       style="fill:#5f3e34;stroke-width:0.927288"
       id="path130" />
    <path
       d="m 3360.0753,3232.7109 v 0.4004 l 0.178,0.018 c -0.01,-0.059 -0.012,-0.12 -0.018,-0.1797 -0.019,-0.04 -0.038,-0.078 -0.059,-0.1113 -0.021,-0.033 -0.043,-0.062 -0.066,-0.088 -0.012,-0.013 -0.023,-0.026 -0.035,-0.039 z"
       style="fill:#5f3e34;stroke-width:0.927288"
       id="path127" />
    <path
       d="m 3371.1629,3234.1758 h 0.03 c 0,0 0,0 0,0 4e-4,-0.01 0,-0.022 0.01,-0.047 -8e-4,1e-4 0,0 0,0 0,0 0,0 0,0 0,0 0,0 0,0 0,5e-4 0,0 -0.01,0 -0.01,0.015 -0.018,0.03 -0.027,0.045 z"
       style="fill:#5f3e34;stroke-width:0.927288"
       id="path138" />
    <path
       d="m 3371.7943,3220.0137 c -0.076,-0.1374 -0.1533,-0.279 -0.2317,-0.4239 0,0 0,-0.01 -0.01,-0.01 4e-4,0 0,0.01 0,0.01 0.078,0.1433 0.1564,0.2847 0.2351,0.4239 z"
       style="fill:#f6f2ea"
       id="path157" />
    <path
       d="m 3371.8161,3220.0508 c -0.07,-0.2392 -0.1559,-0.4163 -0.2603,-0.5215 v 0 c 0,0.017 0,0.034 0.01,0.051 0,0 0,0.01 0.01,0.01 0.086,0.1585 0.1709,0.3114 0.2535,0.461 z"
       style="fill:#f6f2ea"
       id="path151" />
    <path
       id="path150"
       style="fill:#f6f2ea"
       d="m 3366.8921,3200.4648 c -1.54,6.16 -2.6507,13.9188 -6.6707,18.4688 8.2067,0.075 -0.034,0.015 -0.1478,0.014 4.0074,1.7244 6.9133,1.0732 13.165,3.3593 v 0 c 9e-4,3e-4 0,-3e-4 0,0 v 0 c 0.025,0.01 0.052,0.018 0.077,0.027 -1.5191,-7.9464 -0.4919,-12.9713 2.2302,-19.8613 v 0 c 0,10e-5 0,0 -0.01,0 2e-4,-6e-4 -3e-4,0 0,0 -2.4499,-0.7294 -6.0644,-1.4183 -8.6524,-2.0079 z m 4.657,19.0664 c 0.1012,0.1021 0.185,0.2717 0.2536,0.5 0,-0.01 -0.01,-0.012 -0.01,-0.017 -0.079,-0.1392 -0.1572,-0.2806 -0.2351,-0.4239 v 0 c -1e-4,0 0,-0.01 0,-0.01 -0.01,-0.016 -0.01,-0.033 -0.01,-0.049 z" />
  </g>
</svg>
