<?xml version="1.0" encoding="UTF-8" standalone="no"?>
<svg
   version="1.1"
   style="display:block"
   viewBox="0 0 548.88714 602.5567"
   width="638.34235"
   height="602.5567"
   preserveAspectRatio="none"
   id="svg213"
   xmlns="http://www.w3.org/2000/svg"
   xmlns:svg="http://www.w3.org/2000/svg">
  <defs
     id="defs2">
    <linearGradient
       id="Gradient1"
       gradientUnits="userSpaceOnUse"
       x1="1212.26"
       y1="1519.13"
       x2="1097.65"
       y2="1453.72">
      <stop
         class="stop0"
         offset="0"
         stop-opacity="1"
         stop-color="rgb(0,0,0)"
         id="stop1" />
      <stop
         class="stop1"
         offset="1"
         stop-opacity="1"
         stop-color="rgb(58,35,26)"
         id="stop2" />
    </linearGradient>
  </defs>
  <g
     id="g273"
     transform="translate(-1098.8124,-1384.552)">
    <path
       d="m 1181.5596,1630.6309 c -11.02,-0.02 -20.4298,-1.1506 -31.3598,-2.3106 2.72,13.77 2.4909,28.7789 5.3809,42.3789 3.05,14.34 22.6386,60.3713 4.4286,69.1113 -7.43,-0.54 -9.4596,-3.1007 -15.7496,-7.8007 -3.68,-37.02 -3.0689,-68.9293 -19.8289,-104.7793 -18.23,40.28 -15.6601,50.1886 -3.5201,91.1386 3.52,11.88 3.1993,32.5217 4.7393,45.4317 2.54,26.94 -5.5207,51.2901 -8.6607,77.6601 -2.24,23.27 5.2804,65.16 8.8304,90 8.83,0.47 17.5008,1.5594 26.0108,-0.3906 l 2.0691,-4.9512 c -0.13,-18.53 1.1805,-70.4798 5.1105,-86.8398 17.06,-71.03 20.9695,-136.0084 22.5495,-208.6484 z"
       style="fill:#cccccc;fill-opacity:1"
       id="path265" />
    <path
       d="m 1150.1427,1384.5527 c -4.7415,0.037 -9.463,1.5028 -13.9224,5.0371 -23.95,18.96 -17.2609,52.6404 -23.3809,77.1504 -10.88,43.53 -28.0693,68.4307 6.4507,107.7207 4.41,-18.74 -7.0599,-71.4205 12.0801,-79.8105 38.31,-16.79 15.9299,88.0995 15.1399,98.5195 10.2,0.06 25.5695,0.6009 35.2595,-0.6191 1.07,-18.28 1.8098,-19.7899 11.6098,-35.1699 -2.26,-23.67 -8.0086,-29.5408 -22.8586,-47.3008 -7.41,-4.16 -13.8702,-14.9402 -20.4402,-20.4102 -3.84,-3.19 -5.8614,-2.059 -10.0514,-6.459 4.61,-7.44 6.0801,-10.5814 9.4501,-18.6914 2.54,-17.37 -4.5999,-24.3797 -1.0899,-31.7597 16.56,-2.69 27.8101,-18.7296 30.7401,-34.5196 -8.03,-6.9368 -18.5554,-13.7695 -28.9868,-13.6875 z"
       style="fill:#cccccc;fill-opacity:1"
       id="path261" />
    <path
       d="m 1179.1295,1398.2402 c -2.93,15.79 -14.1801,31.8296 -30.7401,34.5196 -3.51,7.38 3.6299,14.3897 1.0899,31.7597 5.09,3.91 5.3209,3.76 11.0809,5.92 40.34,14.27 23.7493,-54.2093 18.5693,-72.1993 z"
       style="fill:#aa4931"
       id="path262" />
    <path
       d="m 1160.5602,1470.4395 c -5.76,-2.16 -5.9909,-2.01 -11.0809,-5.92 -3.37,8.11 -4.8401,11.2514 -9.4501,18.6914 4.19,4.4 6.2114,3.269 10.0514,6.459 6.57,5.47 13.0302,16.2502 20.4402,20.4102 -8.78,-15.46 -12.0306,-22.1806 -9.9606,-39.6406 z"
       style="fill:#9a432d;fill-opacity:1"
       id="path263" />
    <path
       d="m 1181.7696,1592.5508 c -9.69,1.22 -25.0595,0.6791 -35.2595,0.6191 0.79,-10.42 23.1701,-115.3095 -15.1399,-98.5195 -19.14,8.39 -7.6701,61.0705 -12.0801,79.8105 -0.05,19.63 5.3607,43.4596 5.1407,52.7696 16.76,35.85 16.1489,67.7593 19.8289,104.7793 6.29,4.7 8.3196,7.2607 15.7496,7.8007 18.21,-8.74 -1.3786,-54.7713 -4.4286,-69.1113 -2.89,-13.6 -2.6609,-28.6089 -5.3809,-42.3789 10.93,1.16 20.3398,2.2906 31.3598,2.3106 0.49,-10.89 1.8,-27.8801 0.21,-38.0801 z"
       style="fill:#aa4931"
       id="path264" />
    <path
       d="m 1469.7868,1585.0938 c -2.1436,0.018 -4.3211,0.2382 -6.5061,0.6757 -24.67,4.94 -29.0899,41.7308 -41.9099,55.5508 -30.37,32.75 -54.7715,40.4392 -60.5515,90.1992 12.9,-7.48 42.8214,-49.3892 59.6614,-48.1992 l 1.2193,4.1094 c 9.04,-11.29 16.1605,-10.0599 31.2405,-12.4199 3.2,-11.9 4.9501,-15.2903 10.3201,-26.2403 -1.0403,-6.87 -2.1313,-10.7397 -1.0513,-17.5097 l 2.991,-1.9707 c 19.51,2.65 22.5896,-6.1388 35.7196,-18.7188 -2.7737,-15.7325 -16.1275,-25.6002 -31.1331,-25.4765 z"
       style="fill:#cccccc;fill-opacity:1"
       id="path254" />
    <path
       d="m 1500.9199,1610.5703 c -13.13,12.58 -16.2096,21.3688 -35.7196,18.7188 l -2.991,1.9707 c -1.08,6.77 0.011,10.6397 1.0513,17.5097 -5.37,10.95 -7.1201,14.3403 -10.3201,26.2403 -15.08,2.36 -22.2005,1.1299 -31.2405,12.4199 -9.87,30.78 12.4499,33.9306 35.5399,30.6406 13.01,-2.05 136.7005,-11.5305 142.2905,-10.4805 29.1,5.51 25.3503,-7.2406 41.0703,-6.8906 2.99,0.07 3.4899,0.1106 6.5799,-0.8594 l 0.519,-8.1406 c -27.89,2.4 -65.4189,-5.2983 -94.0089,-6.3183 -21.71,-0.77 -65.89,2.7993 -83.61,-7.4707 l 0.2301,-2.1309 c 9.4958,-4.841 11.6534,0.5964 18.3796,-2.084 6.7262,-2.6804 13.1295,-31.4151 12.8895,-61.4551 z"
       style="fill:#aa4931"
       id="path255" />
    <path
       d="m 1457.2399,1718.0703 c -23.09,3.29 -45.4099,0.1394 -35.5399,-30.6406 l -1.2193,-4.1094 c -16.84,-1.19 -46.7614,40.7192 -59.6614,48.1992 l -0.3896,1.0606 c 14.93,17.29 28.1506,31.7506 48.8106,42.3906 32.18,-27.28 42.6496,0.7696 47.9996,-56.9004 z"
       style="fill:#cccccc;fill-opacity:1"
       id="path256" />
    <path
       d="m 1397.7094,1785.0801 c -20.53,1.12 -48.2389,0.259 -68.9989,0.039 -7.19,18 -10.941,34.2111 -2.321,52.8711 20.88,45.23 75.2605,17.5403 107.6105,4.7403 -10.03,19.5 -17.6993,56.7397 -22.7393,79.2597 9.52,7.34 15.8094,11.0203 27.5694,13.9903 2.4,-5.87 10.4191,-18.3301 13.9291,-25.8301 14.35,-30.46 35.8215,-68.5698 38.1715,-102.0098 2.71,-38.57 -71.0413,-24.3705 -93.2213,-23.0605 z"
       style="fill:#cccccc;fill-opacity:1"
       id="path258" />
    <path
       d="m 1409.2403,1774.9707 c -20.66,-10.64 -33.8806,-25.1006 -48.8106,-42.3906 -12.15,17.6699 -22.1093,33.3891 -31.7192,52.539 20.76,0.22 48.4689,1.081 68.9989,-0.039 3.7899,-4.2399 7.1112,-6.5496 11.5309,-10.1094 z"
       style="fill:#aa4931"
       id="path257" />
    <path
       d="m 1437.8997,1939.3105 c -14.3,13.16 -17.9496,14.8287 -31.9796,0.6387 -19.32,37.23 -0.1201,46.9503 33.5599,45.5703 14.55,-0.6 23.23,1.111 37.97,-3.539 4.5,-5.11 2.9005,-2.1507 4.0205,-9.6407 -3.39,-6.62 -22.0009,-13.6399 -29.0909,-19.1699 -5.35,-4.18 -9.8099,-8.9894 -14.4799,-13.8594 z"
       style="fill:#cccccc;fill-opacity:1"
       id="path260" />
    <path
       d="m 1438.8301,1935.9805 c -11.76,-2.97 -18.0494,-6.6503 -27.5694,-13.9903 -1.18,5.7 -1.8606,14.829 -5.3406,17.959 14.03,14.19 17.6796,12.5213 31.9796,-0.6387 z"
       style="fill:#aa4931"
       id="path259" />
    <path
       d="m 1154.2892,1941.8691 c -5.85,5.1 -9.6289,9.5211 -17.1989,10.3711 -7.02,-1.91 -7.5198,-2.76 -13.3498,-7.5 -21.69,42.78 11.8395,44.1399 42.4995,41.5899 9.47,-0.79 32.1292,1.8001 32.8192,-10.5899 -6.47,-11.85 -28.1,-17.8011 -44.77,-33.8711 z"
       style="fill:#cccccc;fill-opacity:1"
       id="path267" />
    <path
       d="m 1153.8996,1926.1191 -2.0691,4.9512 c -8.51,1.95 -17.1808,0.8606 -26.0108,0.3906 0.2,4.41 1.6708,10.1793 -2.0792,13.2793 5.83,4.74 6.3298,5.59 13.3498,7.5 7.57,-0.85 11.3489,-5.2711 17.1989,-10.3711 -1.05,-5.43 -0.5196,-10.14 -0.3896,-15.75 z"
       style="fill:#976748"
       id="path266" />
  </g>
</svg>
