<?xml version="1.0" encoding="UTF-8" standalone="no"?>
<svg
   version="1.1"
   style="display:block"
   viewBox="0 0 639.80163 760.69458"
   width="744.07367"
   height="760.69458"
   preserveAspectRatio="none"
   id="svg213"
   xmlns="http://www.w3.org/2000/svg"
   xmlns:svg="http://www.w3.org/2000/svg">
  <defs
     id="defs2">
    <linearGradient
       id="Gradient1"
       gradientUnits="userSpaceOnUse"
       x1="1212.26"
       y1="1519.13"
       x2="1097.65"
       y2="1453.72">
      <stop
         class="stop0"
         offset="0"
         stop-opacity="1"
         stop-color="rgb(0,0,0)"
         id="stop1" />
      <stop
         class="stop1"
         offset="1"
         stop-opacity="1"
         stop-color="rgb(58,35,26)"
         id="stop2" />
    </linearGradient>
  </defs>
  <g
     id="g274"
     transform="translate(-21.3308,-1225.7546)">
    <path
       fill="rgb(2,2,3)"
       d="m 140.268,1476.13 c 11.632,5.34 26.106,11.03 34.943,20.22 28.772,54.35 10.871,84.18 8.564,144.42 22.13,-6.71 99.614,-32.92 102.228,6.47 1.84,27.73 -0.024,95.13 -5.599,122.45 l -25.84,0.56 c -3.684,-28.52 -10.013,-62.43 -6.37,-90.54 -30.538,22.76 -36.337,25.68 -71.571,36.91 -8.906,28.47 -25.009,79.66 -39.211,105.32 -18.841,34.04 -45.5582,72.34 -66.1344,105.82 -8.8079,-2.36 -17.1388,-10.75 -23.5992,-17.05 9.4275,-27.8 20.4232,-68 39.2718,-90.3 21.1038,-24.97 17.9848,-62.69 19.4608,-93.94 0.745,-15.77 -3.285,-35.18 -1.09,-50.91 2.187,-15.68 12.839,-29.81 11.945,-46.55 3.632,-65.37 -15.272,-96.04 23.002,-152.88 z"
       id="path18"
       style="fill:#cccccc;fill-opacity:1" />
    <path
       fill="#cc9f6d"
       d="m 145.215,1689.68 c 27.79,2.82 13.92,32.58 15.847,48.51 -5.641,1.82 -5.512,1.61 -11.523,1.54 -17.03,-7.78 -17.643,-39.72 -4.324,-50.05 z"
       id="path19" />
    <path
       fill="rgb(2,2,3)"
       d="m 551.089,1295.09 c 1.364,8.83 1.877,10.63 9.494,16.18 0.985,0.71 1.981,1.4 2.99,2.08 -4.074,4.14 -3.037,10.39 -2.769,16.08 29.076,40.44 21.897,86.9 20.514,135.2 -0.112,19.79 -0.375,67.99 -3.261,85.92 1.228,37.95 -14.573,111.04 -19.833,151.04 -2.327,17.7 -4.62,55.97 -7.568,70.49 l -27.02,-0.76 c -4.17,-15.94 -11.733,-79.16 -8.914,-92.96 10.335,-50.61 10.631,-98.75 -2.772,-149.31 -8.838,-33.33 6.322,-37.92 5.641,-61.12 -1.729,-58.91 -23.686,-100.13 11.839,-153.91 l 0.604,-3.97 c 11.886,-9.09 17.02,1.81 21.055,-14.96 z"
       id="path29"
       style="fill:#cccccc;fill-opacity:1" />
    <path
       id="path31"
       d="m 550.11433,1521.9805 c -12.439,9.51 -11.24226,51.5301 8.04274,52.9101 14.978,-6.96 5.20118,-13.9115 9.46018,-27.5215 2.81,-3.69 -0.69645,-7.8096 -2.51745,-11.5996 -3.704,-7.02 -4.05801,-9.0199 -10.40401,-13.1699 z"
       style="fill:#c58e5f;fill-opacity:1" />
    <path
       id="path35"
       d="m 376.80485,1671.4609 c -6.679,50.48 -14.96727,98.0386 -20.31427,149.3086 -7.32,0.1 -21.83251,1.0406 -28.07151,-1.1894 0.335,-2.86 1.2086,-9.9797 -1.6324,-11.4297 -19.833,-10.13 -29.50035,-13.6007 -45.56435,-29.2207 -0.723,-2.66 -0.67788,-6.3602 -0.81788,-9.2402 l -25.84124,0.5605 c 0.055,5.73 0.92679,8.3509 -1.47621,12.9609 -2.948,7.2 -9.38883,45.6086 -9.54583,52.0586 -0.498,20.59 -7.47588,136.4809 -3.23288,147.8809 4.913,1.46 5.80437,0.8898 10.84737,0.09 5.153,-5.53 3.74185,-26.7804 3.92985,-36.4804 35.484,-0.55 72.65344,-0.059 108.25544,-0.049 1.353,12.76 -3.48168,38.8587 13.91232,38.3887 6.444,-9.21 -2.87445,-133.4305 -0.67345,-157.5605 4.517,-49.5 10.4252,-99.88 17.9782,-149.17 z m -19.13363,172.4395 c -0.571,28.27 3.9478,57.7896 4.2758,86.3496 l -2.6686,2.5703 c -33.594,0.8 -69.53583,0.1106 -103.30283,0.061 1.83,-30.4 5.04323,-58.2717 5.69323,-88.9317 z"
       style="fill:#cccccc;fill-opacity:1" />
    <path
       fill="#c58e5f"
       d="m 254.564,1770.25 25.84,-0.56 c 0.14,2.88 0.095,6.58 0.818,9.24 -3.783,4.94 -5.728,8.68 -11.434,10.89 -7.074,0.53 -10.773,-2.48 -16.701,-6.61 2.403,-4.61 1.532,-7.23 1.477,-12.96 z"
       id="path36" />
    <path
       id="path38"
       d="m 644.34829,1671.1797 c -6.528,39.21 -17.86089,111.1895 -20.48389,149.7695 -6.688,-0.02 -21.8688,0.851 -27.0118,-1.709 0.248,-1.41 0.89087,-8.0393 0.0269,-8.6093 -18.065,-11.78 -30.31052,-16.4308 -46.59552,-31.5508 l 0.37283,-7 -27.02019,-0.7598 c -0.003,4.77 0.55935,8.7296 -1.62065,12.8496 -1.292,2.62 -11.56268,49.2002 -11.80968,55.1602 -1.859,44.76 -5.05909,93.9407 -5.06009,138.9707 0,4.02 3.18473,6.2984 5.62773,8.1484 l 3.54526,-1.2383 c 9.364,-11.15 7.01135,-23.2504 6.98135,-38.4004 l 109.20432,-0.1406 c 0.371,8.57 0.50102,30.0299 3.86602,36.6699 5.17,1.4 4.85889,1.2001 10.16889,0.08 5.055,-8.4 1.37453,-23.9398 1.73653,-34.3398 1.266,-37.31 -5.26669,-79.1698 -2.98769,-116.0098 3.129,-50.58 11.21884,-104.5705 17.84384,-154.8105 z m -116.21758,172.7695 96.72455,0.07 c 0.544,14.82 5.25945,76.8109 3.79045,87.1309 l -2.6686,1.7402 c -34.381,0.26 -68.76465,0.2388 -103.14665,-0.031 0.854,-29.3 4.79525,-58.1802 5.30025,-88.9102 z"
       style="fill:#cccccc;fill-opacity:1" />
    <path
       fill="#c58e5f"
       d="m 523.636,1771.32 27.02,0.76 -0.372,7 c -3.809,5.37 -5.242,8.62 -11.288,11.09 -7.08,0.71 -10.887,-2.23 -16.98,-6 2.18,-4.12 1.617,-8.08 1.62,-12.85 z"
       id="path39" />
    <path
       fill="#cc9f6d"
       d="m 143.811,1462.92 c -4.242,-27.2 -31.725,-72.02 32.057,-74.52 12.993,-0.5 18.971,8.61 16.96,21.73 1.994,12 6.036,31.95 5.61,43.16 -5.575,11.4 -0.587,13.33 -4.708,23.22 -6.617,3.64 -10.255,2.42 -17.765,0.33 -2.499,8.96 -1.972,9.99 -0.754,19.51 -8.837,-9.19 -23.311,-14.88 -34.943,-20.22 2.793,-4.65 2.592,-7.58 3.543,-13.21 z"
       id="path152" />
    <path
       fill="rgb(2,2,3)"
       d="m 143.811,1462.92 c -4.242,-27.2 -31.725,-72.02 32.057,-74.52 12.993,-0.5 18.971,8.61 16.96,21.73 -12.985,0.57 -14.496,-0.03 -21.116,11.34 -5.835,6.92 -5.743,9.14 -15.733,8.82 -6.738,16.25 7.641,21.01 -12.168,32.63 z"
       id="path153"
       style="fill:#e9c6af;fill-opacity:1" />
    <path
       fill="#c58e5f"
       d="m 171.712,1421.47 c 6.62,-11.37 8.131,-10.77 21.116,-11.34 1.994,12 6.036,31.95 5.61,43.16 -11.314,-4.79 -9.948,4.69 -22.967,1.48 -6.223,-14.51 -6.397,-17.31 -3.759,-33.3 z"
       id="path154" />
    <path
       fill="rgb(25,24,24)"
       d="m 175.471,1454.77 c 13.019,3.21 11.653,-6.27 22.967,-1.48 -5.575,11.4 -0.587,13.33 -4.708,23.22 -6.617,3.64 -10.255,2.42 -17.765,0.33 l -3.111,-2.8 c -2.606,-5.49 -4.982,-8.9 -4.547,-14.88 3.357,-4.39 1.204,-2.74 7.164,-4.39 z"
       id="path155"
       style="fill:#e9c6af;fill-opacity:1" />
    <path
       fill="rgb(44,27,18)"
       d="m 155.979,1430.29 c 9.99,0.32 9.898,-1.9 15.733,-8.82 -2.638,15.99 -2.464,18.79 3.759,33.3 -5.96,1.65 -3.807,0 -7.164,4.39 -0.435,5.98 1.941,9.39 4.547,14.88 -20.045,-16.95 4.777,-34.17 -16.875,-43.75 z"
       id="path156"
       style="fill:#e9c6af;fill-opacity:1" />
    <path
       fill="rgb(2,2,3)"
       d="m 531.707,1299.15 c -9.577,-26.44 -23.52,-69.06 23.058,-73.3 7.475,-0.68 18.015,2.31 23.425,7.9 2.42,5.77 1.953,5.91 0.946,11.91 1.127,7.86 6.511,35.52 4.418,40.43 -0.359,8.13 0.236,18.19 -3.611,24.82 -6.616,4.25 -7.291,3.57 -16.37,2.44 -1.009,-0.68 -2.005,-1.37 -2.99,-2.08 -7.617,-5.55 -8.13,-7.35 -9.494,-16.18 -4.035,16.77 -9.169,5.87 -21.055,14.96 1.035,-3.97 1.202,-6.85 1.673,-10.9 z"
       id="path164"
       style="fill:#e9c6af;fill-opacity:1" />
    <path
       fill="#c58e5f"
       d="m 579.136,1245.66 c 1.127,7.86 6.511,35.52 4.418,40.43 -0.359,8.13 0.236,18.19 -3.611,24.82 -6.616,4.25 -7.291,3.57 -16.37,2.44 -1.009,-0.68 -2.005,-1.37 -2.99,-2.08 -7.617,-5.55 -8.13,-7.35 -9.494,-16.18 -0.42,-9.42 -0.816,-11.93 1.718,-20.9 l 3.079,-1.92 c 0.801,-7.06 3.23,-14 5.272,-20.85 z"
       id="path165" />
    <path
       fill="rgb(25,24,24)"
       d="m 555.886,1272.27 c 1.631,7.18 1.793,11.41 6.341,16.83 7.464,3.1 13.494,-0.25 21.327,-3.01 -0.359,8.13 0.236,18.19 -3.611,24.82 -6.616,4.25 -7.291,3.57 -16.37,2.44 -1.009,-0.68 -2.005,-1.37 -2.99,-2.08 -7.617,-5.55 -8.13,-7.35 -9.494,-16.18 -0.42,-9.42 -0.816,-11.93 1.718,-20.9 z"
       id="path166"
       style="fill:#e9c6af;fill-opacity:1" />
    <path
       id="path30"
       d="m 545.84356,1267.8906 c -8.796,5.71 0.16364,17.6898 -14.13736,31.2598 -0.471,4.05 -0.6377,6.9304 -1.6727,10.9004 l -0.60291,3.9687 c 10.853,4.07 15.36337,5.51 25.33237,11.67 l 6.04088,3.7402 c -0.268,-5.69 -1.30464,-11.9401 2.76936,-16.0801 -1.009,-0.68 -2.00436,-1.3701 -2.98936,-2.0801 -7.617,-5.55 -8.13145,-7.3497 -9.49545,-16.1797 -0.42,-9.42 -0.81595,-11.9303 1.71805,-20.9003 -3.687,-5.7 -1.27388,-3.8589 -6.96288,-6.2989 z"
       style="display:block;fill:#c58e5f;fill-opacity:1" />
    <path
       fill="rgb(2,2,3)"
       d="m 47.6784,1910.71 c 6.4604,6.3 14.7913,14.69 23.5992,17.05 -3.2353,4.76 -5.4209,5.86 -4.7347,10.01 2.9396,8.28 5.7966,14.02 9.574,21.88 3.2339,1.56 6.4562,3.15 9.6665,4.76 7.2399,3.56 18.4676,9.26 12.4115,18.55 -23.0359,10.16 -60.6755,-7.41 -76.8641,-24.77 4.4498,-9.33 10.5537,-24.12 17.3431,-31.1 4.2869,-4.29 6.4973,-10.69 9.0045,-16.38 z"
       id="path180"
       style="fill:#cccccc;fill-opacity:1" />
    <path
       fill="#c58e5f"
       d="m 47.6784,1910.71 c 6.4604,6.3 14.7913,14.69 23.5992,17.05 -3.2353,4.76 -5.4209,5.86 -4.7347,10.01 -16.6434,2.84 -16.9624,2.46 -27.869,-10.68 4.2869,-4.29 6.4973,-10.69 9.0045,-16.38 z"
       id="path181" />
  </g>
</svg>
