<?xml version="1.0" encoding="UTF-8" standalone="no"?>
<svg
   version="1.1"
   style="display:block"
   viewBox="0 0 770.19897 807.43933"
   width="895.7226"
   height="807.43933"
   preserveAspectRatio="none"
   id="svg213"
   xmlns="http://www.w3.org/2000/svg"
   xmlns:svg="http://www.w3.org/2000/svg">
  <defs
     id="defs2">
    <linearGradient
       id="Gradient1"
       gradientUnits="userSpaceOnUse"
       x1="1212.26"
       y1="1519.13"
       x2="1097.65"
       y2="1453.72">
      <stop
         class="stop0"
         offset="0"
         stop-opacity="1"
         stop-color="rgb(0,0,0)"
         id="stop1" />
      <stop
         class="stop1"
         offset="1"
         stop-opacity="1"
         stop-color="rgb(58,35,26)"
         id="stop2" />
    </linearGradient>
  </defs>
  <g
     id="g272"
     transform="translate(-1817.1818,-1185.5998)">
    <path
       d="m 2140.2199,1281.2891 c -17.49,-6.56 -18.0505,-0.3983 -34.9505,2.2617 -38.83,29.24 -40.7499,78.8187 -56.1699,123.4687 -16.95,11.06 -54.6192,42.951 -68.3792,57.961 l 27.4803,45.9687 c 3,5.06 3.4499,6.3605 8.0999,10.2305 7.1,-2.06 77.6003,-47.8904 80.3703,-53.9004 11.86,-25.72 17.7592,-56.5295 30.8392,-84.1895 0.1,-0.34 2.1094,-7.3005 2.1094,-7.3105 -5.86,-19.11 -41.6391,-88.9184 0.1209,-89.6484 6.51,-0.11 12.9296,9.6497 17.0696,15.2597 -1.56,-9.12 -2.96,-11.6615 -6.59,-20.1015 z"
       style="fill:#cccccc;fill-opacity:1"
       id="path249" />
    <path
       d="m 2146.8099,1301.3906 c -4.14,-5.61 -10.5596,-15.3697 -17.0696,-15.2597 -41.76,0.73 -5.9809,70.5384 -0.1209,89.6484 0,0.01 -2.0094,6.9705 -2.1094,7.3105 l 4.6201,3.1211 c 7.27,23.61 14.5405,58.1992 23.3305,80.3692 -15.12,9.72 -19.6606,21.0003 -7.1006,36.0703 1.81,2.13 3.6707,4.2005 5.5807,6.2305 1.02,-6.31 1.0701,-17.5501 1.3301,-24.3301 l 18.0488,-5.0508 c -6.64,-20.07 -2.7193,-40.6097 -6.0493,-59.6797 -6.23,-35.59 -8.1904,-86.0497 -20.4604,-118.4297 z"
       style="fill:#f4d0bf"
       id="path250" />
    <path
       id="path45"
       d="m 2570.1095,1675.8594 c -9.14,45.88 -15.5391,103.8113 -21.6091,150.6113 l -105.4508,0.2598 c -9.88,8.59 -7.7996,17.8589 -7.6296,30.3789 -0.71,17.89 -5.6808,126.5906 -2.9608,132.8906 5.85,1.55 5.7808,1.8591 11.9608,0.5391 2.42,-6.71 2.7201,-28.5688 3.0801,-36.9688 l 109.1304,-0.3203 c 0.82,12.58 -3.2504,31.6791 8.5096,39.7891 l 3.3303,-1 c 8.78,-13.32 -2.4211,-131.399 -0.1411,-158.209 4.29,-50.31 10.9614,-101.3806 19.0514,-151.0606 z m -115.5592,173.4609 c 31.55,-0.15 63.1089,-0.1 94.6689,0.1504 1.14,13.98 5.8212,77.9587 4.1112,88.6387 l -2.8701,1.5703 -101.8199,-0.4004 c 2.22,-29.97 4.1899,-59.959 5.9099,-89.959 z"
       style="fill:#bf8056;fill-opacity:1" />
    <path
       d="m 2173.3196,1479.5 -18.0488,5.0508 c -0.26,6.78 -0.3101,18.0201 -1.3301,24.3301 -1.28,10.39 -1.6103,37.4087 -2.0203,48.9687 -0.91,26.43 -3.4898,57.0802 -3.0398,83.1602 4.76,2.84 6.419,2.3111 11.929,2.1211 5.29,-6.27 4.4709,-28.4918 4.7309,-38.0918 36.09,0.58 72.1889,0.77 108.2789,0.58 0.82,8.88 0.7413,30.3006 4.1213,36.5606 4.49,1.06 6.2086,0.331 10.7886,-0.459 3.78,-5.99 0.3103,-68.9902 -0.6297,-80.2402 -6.5,-77.16 7.5509,-147.2799 16.1409,-223.8399 -5.1,-2.33 -10.8506,-4.5113 -16.1006,-6.6113 -8.35,36.33 -19.3403,111.0014 -20.4503,147.6914 -31.1699,0.66 -63.2602,-0.7507 -94.37,0.7793 z m 0.1108,22.5293 c 31.6,-0.18 63.21,-0.1688 94.81,0.031 0.44,12.8 6.159,84.8296 2.939,89.7696 l -104.4902,-0.291 c 2.21,-15.58 4.3812,-82.2698 6.7412,-89.5098 z"
       style="fill:#bf8056;fill-opacity:1"
       id="path251" />
    <path
       fill="rgb(2,2,3)"
       d="m 2391.67,1678.24 c 12.96,-5.68 16.56,-6.99 30.43,-4.81 l 5.63,7.65 c -6.76,-1.06 -20.89,-4.04 -25.35,1.29 -10.92,13.05 -17.16,22.49 -2.16,35.56 9.87,8.6 28.49,8.65 33.63,18.18 0.01,0.07 0.64,5.3 0.66,5.47 -5.86,23.46 -12.03,46.87 -18.1,70.22 -6.44,24.79 -6.96,58.64 -31.19,73.89 -22.59,14.21 -60.31,1.24 -84.71,-3.33 -5.57,-1.04 -13.71,-2.97 -18.95,-4.48 1.17,-21.73 1.5,-43.5 0.99,-65.25 23.5,0.01 47,0.26 70.5,0.75 5.15,-49.94 3.88,-97.79 38.62,-135.14 z"
       id="path60"
       style="fill:#cccccc;fill-opacity:1" />
    <path
       fill="#f4d0bf"
       d="m 2166.73,1938.49 c 17.36,-18.32 42.53,-89.88 61.22,-112.89 11.57,-14.23 35.17,-11.23 54.6,-12.97 0.51,21.75 0.18,43.52 -0.99,65.25 -5.83,-11.47 -19.09,-12.92 -31.13,-15.89 -4.48,14.8 -5.88,19.89 -12.32,33.68 -8.03,17.23 -51.18,54.24 -51.24,67.99 -8.44,-3.59 -9.22,-1.35 -16.88,-7.15 -3.41,-6.23 -2.87,-10.65 -3.26,-18.02 z"
       id="path112" />
    <path
       fill="#f4d0bf"
       d="m 2434.51,1741.58 c -0.02,-0.17 -0.65,-5.4 -0.66,-5.47 -5.14,-9.53 -23.76,-9.58 -33.63,-18.18 -15,-13.07 -8.76,-22.51 2.16,-35.56 4.46,-5.33 18.59,-2.35 25.35,-1.29 33.51,22.61 87.17,25.34 51.16,79.48 -14.57,21.91 -31.88,39.76 -35.84,66.17 -9.88,8.59 -7.8,17.86 -7.63,30.38 -6.4,-4.63 -16.44,-15.67 -13.61,-24.37 10.36,-31.78 23.74,-62.75 35.04,-94.26 -6.56,-1.49 -14.67,-4.62 -20.26,-2.33 z"
       id="path120" />
    <path
       d="m 2008.2006,1510.9492 -27.4803,-45.9687 c -0.65,2.15 -25.6808,28.5104 -28.6308,31.4004 -14.3,14.03 -67.1494,89.8998 -80.6894,93.5898 0.27,14.99 3.37,22.2791 19.76,24.5391 7.5,-18.51 48.8192,-36.3003 60.4592,-51.0703 23.74,-30.14 17.3613,-38.7003 56.5813,-52.4903 z"
       style="fill:#f4d0bf"
       id="path252" />
    <path
       d="m 2135.4503,1257.5801 c -4.88,-4.45 -5.3299,-4.4295 -8.5499,-10.4395 0.72,-7.59 1.9801,-12.8109 -3.7199,-18.4609 -3.54,0.93 -5.2303,1.7198 -8.3803,3.5898 -12.79,-14.16 0.8891,-18.3804 -26.0109,-25.7304 -3.98,24.42 -13.659,55.8918 15.501,66.6718 2.22,3.89 1.4291,5.7499 0.9791,10.3399 16.9,-2.66 17.4605,-8.8217 34.9505,-2.2617 -3.25,-10.07 -4.3096,-12.739 -4.7696,-23.709 z"
       style="fill:#f4d0bf"
       id="path248" />
    <path
       d="m 2111.4044,1185.6602 c -13.2225,-0.79 -24.2251,6.1689 -22.6151,20.8789 26.9,7.35 13.2209,11.5704 26.0109,25.7304 3.15,-1.87 4.8403,-2.6598 8.3803,-3.5898 5.7,5.65 4.4399,10.8709 3.7199,18.4609 3.22,6.01 3.6699,5.9895 8.5499,10.4395 9.08,-17.96 11.2503,-26.8608 11.8903,-46.3008 -7.27,-16.29 -22.7137,-24.8291 -35.9362,-25.6191 z"
       style="fill:#bf8056"
       id="path247" />
    <path
       fill="#f4d0bf"
       d="m 2375.24,1588.04 c 32.58,-18.58 51.61,-3.05 59.05,29.42 -3.98,14.03 -6.86,24.94 -14.9,37.36 -0.66,7.52 0.83,11.13 2.71,18.61 -13.87,-2.18 -17.47,-0.87 -30.43,4.81 -0.95,-5.61 -0.07,-8.78 -5.41,-11.55 -25.8,-13.41 -13.29,-46.37 -12.11,-68.58 0.23,-4.25 0.11,-5.49 1.09,-10.07 z"
       id="path159" />
    <path
       fill="#bf8056"
       d="m 2375.24,1588.04 c 32.58,-18.58 51.61,-3.05 59.05,29.42 -3.98,14.03 -6.86,24.94 -14.9,37.36 -16.86,-11.17 -1.86,-14.71 -9.18,-28.65 -9.72,-5.23 0.14,1.76 -9.26,1.35 -5.64,-5.79 -7.26,-13.66 -9.88,-21.59 -14.65,-5.28 -13.36,-3.62 -15.83,-17.89 z"
       id="path160" />
    <path
       fill="rgb(2,2,3)"
       d="m 2186.87,1963.66 c -4.65,10.59 -8.1,20.26 -17.06,27.75 -3.47,0.56 -3.12,1.25 -5.97,-1.14 -9.37,-7.83 -62.91,-52.74 -52.67,-64.83 12.62,-2.28 25.63,8.64 37.85,11.39 4.79,1.07 12.68,1.4 17.71,1.66 0.39,7.37 -0.15,11.79 3.26,18.02 7.66,5.8 8.44,3.56 16.88,7.15 z"
       id="path193"
       style="fill:#cccccc;fill-opacity:1" />
    <path
       d="m 1891.1601,1614.5098 c -16.39,-2.26 -19.49,-9.5491 -19.76,-24.5391 -5.89,-0.02 -20.1493,0.1895 -25.5793,-0.7305 -8.97,-1.52 -18.6306,-15.0003 -28.1706,-10.3203 -4.26,16.01 21.6894,36.6996 31.0894,47.3496 18.89,21.38 37.1205,19.4203 42.4205,-11.7597 z"
       style="fill:#cccccc;fill-opacity:1"
       id="path253" />
  </g>
</svg>
