<?xml version="1.0" encoding="UTF-8" standalone="no"?>
<svg
   version="1.1"
   style="display:block"
   viewBox="0 0 203.33528 520.03479"
   width="236.47397"
   height="520.03479"
   preserveAspectRatio="none"
   id="svg213"
   xmlns="http://www.w3.org/2000/svg"
   xmlns:svg="http://www.w3.org/2000/svg">
  <defs
     id="defs2">
    <linearGradient
       id="Gradient1"
       gradientUnits="userSpaceOnUse"
       x1="1212.26"
       y1="1519.13"
       x2="1097.65"
       y2="1453.72">
      <stop
         class="stop0"
         offset="0"
         stop-opacity="1"
         stop-color="rgb(0,0,0)"
         id="stop1" />
      <stop
         class="stop1"
         offset="1"
         stop-opacity="1"
         stop-color="rgb(58,35,26)"
         id="stop2" />
    </linearGradient>
  </defs>
  <g
     id="g290"
     transform="translate(-1216.8854,-195.69497)">
    <path
       d="m 1370.3299,668.08789 c -0.2436,-0.11855 -0.4876,-0.22697 -0.7306,-0.32812 -2.26,5.981 -2.4688,7.86825 -7.9588,11.78125 -8.46,1.41 -10.5104,-1.40429 -17.1804,-6.48829 -0.03,0.0222 -0.06,0.0439 -0.089,0.0664 l -0.029,1.04297 10.4796,8.40039 14.5874,-2.14063 0.9926,-10.70703 z"
       style="fill:#cccccc;fill-opacity:1"
       id="path290" />
    <path
       d="m 1370.3299,668.08789 0.072,1.62695 -0.9926,10.70703 -14.5874,2.14063 -10.4796,-8.40039 0.029,-1.04297 c -8.5862,6.62404 -9.4729,27.67553 -4.4504,37.28906 8.94,8.171 27.1498,4.26761 41.4498,5.09961 11.24,0.319 32.02,0.86035 38.85,-9.97265 -0.95,-13.996 -17.07,-12.79191 -26.56,-17.75391 -7.8387,-4.09568 -15.734,-15.99608 -23.3305,-19.69336 z"
       style="fill:#cccccc;fill-opacity:1"
       id="path289" />
    <path
       d="m 1369.8579,657.39844 -0.024,-0.53125 -24.8336,1.63086 c 0.016,0.14743 0.033,0.29553 0.049,0.44336 z"
       style="fill:#cccccc;fill-opacity:1"
       id="path288" />
    <path
       d="m 1369.8579,657.39844 -24.8084,1.54297 c -0.016,-0.14783 -0.032,-0.29593 -0.049,-0.44336 l -0.2334,0.0156 -0.3964,14.60547 c 0.029,-0.0226 0.06,-0.0442 0.089,-0.0664 6.67,5.084 8.7204,7.89829 17.1804,6.48829 5.49,-3.913 5.6988,-5.80025 7.9588,-11.78125 0.243,0.10115 0.487,0.20957 0.7306,0.32812 z"
       style="display:block;fill:#bf8056;stroke-width:0.927288"
       id="path287" />
    <path
       d="m 1286.1506,444.65625 c -5,-2.039 -49.3506,-1.08472 -57.8006,-1.01172 -24.38,101.036 42.4202,85.44802 114.3702,86.79102 -12.7231,49.73181 -3.3747,76.953 2.2806,128.0625 l 24.8336,-1.63086 0.024,0.53125 0.092,-0.006 c 8.06,-45.006 10.179,-100.03224 13.259,-145.86524 3.06,-45.571 -91.5087,-43.61309 -97.0587,-66.87109 z"
       style="fill:#cccccc;fill-opacity:1"
       id="path286" />
    <path
       id="path285"
       style="fill:#cccccc;fill-opacity:1"
       d="m 1234.5806,297.18555 c -21.53,30.772 -12.3811,80.83251 -3.4411,114.97851 20.05,0.076 37.23,0.0722 57.28,-1.50781 0.04,-1.612 0.1502,-9.07861 0.02,-10.09961 0.543,-18.05533 -27.0389,-33.42787 -34.9689,-40.42187 -11.99,-1.366 -16.9314,-4.23902 -20.3814,-16.41602 -5.13,-18.13 -3.5099,-34.34166 15.8101,-39.84766 23.91,14.712 22.5714,31.75066 41.4514,42.84766 l 1.5098,-2.3125 c -4.98,-12.575 -14.6002,-24.10931 -22.8502,-34.82031 -9.68,-5.767 -12.1502,-9.24755 -23.2902,-11.93555 z" />
    <path
       d="m 1288.4195,410.65625 c -20.05,1.58 -37.23,1.58381 -57.28,1.50781 -0.04,7.213 0.6405,26.00947 -2.7895,31.48047 8.45,-0.073 52.8006,-1.02728 57.8006,1.01172 2.02,-5.974 2.0389,-26.492 2.2689,-34 z"
       style="fill:#c58e5f"
       id="path284" />
    <path
       d="m 1313.73,366.26562 c -10.5,12.512 -37.4292,2.75413 -23.3792,-19.54687 -18.88,-11.097 -17.5414,-28.13566 -41.4514,-42.84766 -19.32,5.506 -20.9401,21.71766 -15.8101,39.84766 3.45,12.177 8.3914,15.05002 20.3814,16.41602 14.3925,12.69376 28.4582,33.72702 37.51,39.6621 8.49,2.824 16.1992,5.28847 24.9092,2.85547 16.25,-14.593 -1.7998,-28.75172 -2.1598,-36.38672 z"
       style="fill:#c58e5f"
       id="path283" />
    <path
       d="m 1291.8606,344.40625 -1.5098,2.3125 c -14.05,22.301 12.8792,32.05887 23.3792,19.54687 -6.98,-11.676 -9.9794,-15.37537 -21.8694,-21.85937 z"
       style="fill:#bf8056"
       id="path282" />
    <path
       d="m 1284.8306,213.22461 c -5.96,9.373 -14.821,25.63086 -24.711,30.13086 -3.94,-2.076 -2.5898,-1.1871 -5.6698,-4.6211 l -2.7492,1.45508 c -2.47,10.793 5.039,42.19314 8.429,53.74414 -9.93,-1.738 -14.5188,-2.42365 -24.2088,-5.97265 l -1.3402,9.22461 11.1396,0.46484 c 11.14,2.688 13.6102,6.16855 23.2902,11.93555 -1.24,-4.507 -1.9406,-9.14732 -2.0606,-13.82032 -0.17,-6.384 -0.2005,-7.03887 3.0095,-10.67187 1.4,0.054 7.6414,0.35941 8.5314,0.0664 23.17,-7.621 10.1599,-59.78755 6.3399,-71.93555 z"
       style="fill:#c58e5f"
       id="path280" />
    <path
       d="m 1256.0839,195.71484 c -32.535,-1.17093 -45.3077,49.6885 -36.4736,78.74219 2.33,7.657 9.4005,10.68091 16.3105,13.50391 9.69,3.549 14.2788,4.23465 24.2088,5.97265 -3.39,-11.551 -10.899,-42.95114 -8.429,-53.74414 l 2.7492,-1.45508 c 3.08,3.434 1.7298,2.5451 5.6698,4.6211 9.89,-4.5 18.751,-20.75786 24.711,-30.13086 -1.71,-6.369 -2.6207,-7.56011 -8.6507,-11.03711 -7.3688,-4.25438 -14.071,-6.25582 -20.096,-6.47266 z"
       style="fill:#aa4400"
       id="path279" />
  </g>
</svg>
